<?xml version="1.0" encoding="UTF-8"?>
<svg id="Layer_1" data-name="Layer 1" xmlns="http://www.w3.org/2000/svg" version="1.1" viewBox="0 0 1175 352">
  <defs>
    <style>
      .cls-1 {
        fill: #f59e0b;
        stroke: #000;
        stroke-miterlimit: 10;
        stroke-width: 3px;
      }
    </style>
  </defs>
  <path class="cls-1" d="M86.6,269.1v-1.4c0-1.9.5-4-.7-5.7-1.2-1.7-1.4-3.7-2.1-5.4-.5-1.6-2.3-2.4-2.1-4.4.9-4.9-2.4-3-1-8.2v-.9c-.2-.5-.9-.2-1,.2-.3.2-.2.5-.2.7,0,.7-.2,1.2-.5,1.6.2.5,0,.9,0,1.4-.2.9-.9,1.4-1,2.3,0,1.4.5,3,0,4.4-.2.7-.5,1.4-.7,2.3-.2,1.4.2,3.1-1,4-.2.3-.7.3-.9.2-.7-.3-.7-1.2-.9-1.9-.5-1.4-.3-3.1,0-4.7.2-1.7.2-3.5,0-5.2-.2-1-1.2-1.7-1.2-3-.2-.9,0-2.1-.7-2.8-2.6-2.4-3.1-3.1-1.9-6.6.2-.2-.2-1.7-.2-3.1v-.2c-1.4-1.4-.3-3.5-.7-5.2-.2-1.2-.9-1.9-1.2-2.8-.5-.7-.3-1.9-1-1.9s-1.4-.2-1.2.7c0,1.6-.3,3-.7,4.4-.3,1.2.2,2.3.3,3.3.3,1.4-.3,3-1.9,2.8-1.9-.5-2.3-7-2.1-8.7,0-1.6-.2-3.1,0-4.5.2-1.2.3-2.3-.3-3.3-.2-.3-.5-.7-.9-1-2.3-1.2-1.9-4.2-3-6.3-.3-.5-1.2-1.9-1.6-.5-.3,1,0,2.1-.3,3-1,3-3.1-1.2-3.3-2.6-.2-1.7.5-3.5.5-5s.7-3.8.5-5.6c0-1.7-1.6-3-2.3-4.4-1.2-2.6-.7-5.4-1.2-8.2-.2-1-1-1.9-1.4-3-.7-2.6.3-5.4.2-8.2-.3-1.6-1.4-3.1-1-4.9.5-1.9.2-4,.3-5.9.9-4,2.1-7.8,3.7-11.5.2-.7.7-1.6.2-2.3-2.3-3.8-1.2-4,.9-7,.5-1.2.2-2.4.2-3.7,0-2.3,1.6-4.2,2.6-5.9,1.4-1.7,1.6-7.8,3.7-7.7.5.2.7.7.7,1.2.2.9.5,2.1,1.4,2.4.5.2,1.2.2,1.6-.3v-.3c-.3-1.6-1.9-3-1.7-4.7,0-1.6,1.2-2.6,1.9-3.8.2-1.2.5-2.1,1.4-2.8,1-.9,1.9-1.9,3.1-2.6,1.9-.9,2.4-2.8,3.7-4.2.7-.7,2.3-1.4,2.8-.2.3.9-.2,1.9.5,2.8.7.3,1.4-.5,1.9-1,.9-.9,1.6-2.3,1.9-3.5.3-1.9.9-3.8,3-4.2,1.2-.5,1.9.3,2.8,1,1.9,1.4,4-.9,5.6-1.7,1.2-.7,1.6-2.1,2.3-3.1,1.2-2.1,4-1.9,6.4-1.7.9,0,1.7.2,2.4,0,1.6.3,3,0,4.5-.2,1.6-.3,3.1-.7,4.9-.2l1.6.5c1.4-.2,3.3.2,4,.2,1.4.2,2.6.7,4,1,.3,0,.5,0,.9-.2h.7c.9,0,1.6.9,2.4,1.2.3.2,1,0,1.4,0s.7-.2,1,0c.5.3.5,1,.3,1.6-.2.7-.7,1.4-.7,2.1-.2.7-.3,1.4-.2,2.1.3.5.7,1.2.5,1.9,0,.9-.3,1.6-.5,2.4-.2,1.6.2,3.3.9,4.9.2.9.2,2.1-.5,2.8s-1.6.5-2.1,1.2c0,.9.3,1.7.5,2.6,0,1,1,1.2,1.7,1.9.3.3.5.9.5,1.4,0,1-.2,1.9-.3,2.8-.2.7-.3,1.6-.7,2.3-.3.7-1,1-1.6,1.6,0,1,.3,1.9.2,3-.2,1-1.2,1.7-2.3,1.6-.7-.2-.9-1.2-1.4-1.7-.2-.3-.3-.7-.7-.9-.5.3-1.7-.3-2.3-.3h-.5l-.2.2h-1c-.7,0-1.2.7-1.7.9-.5.3-1,.3-1.6.5l-.7.5c0,1,0,1.9-.2,2.8-.3,1.6,0,3.1-.5,4.5-.7,1.6-2.3,1.2-2.6-.3-.3-2.1.3-4.4.3-6.6s-.7-1.7-1.2-1c0,.9,0,1.4-1,1.2-1-.2-1-1.7-1.2-2.6-.2-.7-.2-1.4-.3-2.1-1,.2-1.9.7-2.8,1.2-1,.3-2.3.2-3.1,1l-.2.2c0,1.2-.9,2.3-.3,3.5.3,3.8.5,5.9-1.9,9.1-.3.7-.9,1.6-1.7,1.2-.5-.2-.7-.7-.9-1.2-.3-1.4-.5-3,0-4.4,0-.3.2-.5.2-.9-.3-.5-.5-1-1-1.6h-1.4l-.9.5c-.5.2-.5.9-.9,1.2.2,1,0,2.3-.3,3.3-.2.7-1,1-1.6,1.6-.2,1.4-.2,2.8-.9,4.2-.3.3-.5,1-.7,1.6,0,.3-.2.7-.2,1-.2.2-.3.2-.3.3l-.5.5s0,.2-.2.2c0,0-.2.2-.3.2h.2s-.2,0-.2.2c-.2,0-.3.2-.5.2,0,0-.2.2-.3.2h-.3q-.2.2-.3.2c-.3.2-.7.5-.9.7-.2,0-.2.2-.3.2l-.5.5v.5c0,.2,0,.5.3.5.3.2.7.2,1,.2,0,0,.2,0,.2-.2h1.9s0,.2.2.2c0,0,.2.2.3.2v.9s.2.2.2.3c-.3,1.4-1,2.6-.7,4.2.3,1.2,1,2.4,1.9,3.3.3.5.2,1.2,0,1.7-.5,1.2-.9,2.6-.7,3.8,0,1,.7,1.9,1,2.8,1.4,3,.3,5.9-.9,8.5-.5,2.3,1.4,3.8,2.6,5.4.3.5.3,1,.3,1.6.7,1,1.6,2.1,2.4,3,.9.7,1.6,1.4,1.9,2.3.5.5,1,.7,1.4,1.2.5.3.9.9,1.2,1.4.5.7,1,1.4,1,2.3s-.3.9-.3,1.2v.7c.7,1.4,2.3.5,3.1-.2.9-.5,1.7-.7,2.8-.7.3.2.5.3.7.7.3.5.5,1.2,1.2,1.6,1.6.9,3.3.2,5,.2.5-.2,1.2-.5,1.6-.9.5-.5.9-1.4,1.6-1.9.3-.3.7-.3,1-.5l1.4-.9c2.4-1.6,3.1-1.2,3.8-.9.7.3,1.4.7,2.4.2s1.6-1.6,2.3-2.4c.3-.7.7-1.6,1.4-1.9,2.4-.5,1.9,2.8,1.6,4.2.5.5.5,1.2.3,1.9v1.6c0,2.4.2,5-1.4,7.1-.2.5.3.7.7,1,.9,1,.2,2.3-.7,3.1s-.3.5-.3.7c0,1.4-1.2,2.6-.7,3.8,1.7.7,1.9,3.5.5,4.5-.2,1.2-.9,2.1-.9,3.1.3.5.9.9,1,1.6.2,1.2,1.7,4.2-.5,4-.2.5-.5,1-.3,1.7,0,.3.2.7,0,1.2,0,.3-.5.7-.7.9-.3.5-.3,1-.7,1.4-.7.5-1.4,1.2-2.3.9-.5-.2-.7-.7-1-1-.3,0-.3.3-.5.5-.3.2-.7.3-.9.7-.5.9-.9,1.9-1,3,0,1.6,1.6,3.1.7,4.9-.2.5-.7.9-.7,1.6,0,3,1.7,5.7,1.2,8.7,0,.9-.7,2.4-1.7,1.2-1.6-1.6-.2-4-.5-5.9-.3-.9-.9-1.6-1.4-2.3-.5-1-1.2-2.1-1.2-3.3-.2-.9.2-1.7,0-2.6-.2-.3-.5-.5-.9-.9-1.7-1-.9-3.7-2.6-4.7-.3,0-.5.3-.5.7-.3.7.2,1.4-.2,2.1,0,.5.2,1,.2,1.6.2.9-.3,1.6-.5,2.4.7.5,1,1.4.9,2.3-.2,1.4.3,3,1.4,4,.5.3,1.2.9,1.4,1.6.3.9-.5,1.6-1.2,1-.5-.3-1-.9-1.2-1.4-.7-1-2.1-1.4-2.8-2.3-.3-.3-.5-1-.5-1.6s0-.3-.2-.7c-.3-.2-.7,0-1,0-.5,0-.9,0-1.2-.2-.9-.3-1.4-1.4-2.4-1.7-.7.3-1,1-1.4,1.7l-1.6,2.1c-.3.5-1,.7-1.6.5,0,.9.5,1.6.5,2.4.2,1-.5,1.9-.9,2.8-.3.5-.3,1.2-.5,1.9,0,1.2.5,2.4.9,3.7.7,1.7.7,3.8,1.4,5.6.7,1.4,2.6,1.9,3.1,3.3.5,1,1,2.3.2,3.1-1.7,1-3.8-.9-4.9-2.1-.7-.9-1.2-1.9-1.7-2.8-.5-1.4-.5-2.8-1-4.2-.3-1.4-.9-3-1.4-4.4-.2-.3-.3-.7-.7-.9-2.3,1.2-2.6,4.9-3.1,7.3-.5,1.6-.3,3.3.2,4.9.3,2.1,2.6,3,3.8,4.7,1.7,2.4-.2,3.5-2.4,3.5h-.9c-6.6-1.2-4.2-6.4-4.2-11.1ZM64.3,208c.2,0,.5-.2.5-.5-.2-.9-.5-2.3-.7-2.4,0-.2-.2-.3-.3-.5s-.5-.2-.7-.3c-.7-1-.5-2.3-.7-3.3,0-.3,0-.5-.2-.9-.2-.3-.3-.5-.7-.7h-.9c-.2,0-.3,0-.5.2s-.3.5-.3.7v3.3c0,.5.2.5.3.7l.5.5.3.5c.2.3.5.7.7,1.2.2.5,1,1.7,1.6,1.7l1-.2ZM77,237.3h1c.2.2.3.2.5.2.5-.2,1-.3,1.4-.9.3-.9-1.7-1.2-2.3-1.6-.5.2-1,.3-1.6.3-.7.3-1,1-1,1.7v.2c.2.2.2.7.5.7.5-.2.9-.5,1.4-.7ZM89.7,253.8c.5.2.9.9,1.4.9.5-.7,0-1.6-.2-2.3-.3-1-.5-2.3-.3-3.3.5-1.6.9-3.3,0-4.9-.3-.9-.5-2.1-1.4-2.6-.5-.3-1-.9-1.6-.9s-.3,0-.5.2c-.5.9-.9,1.7-.7,2.8.3.7.9,1.4.9,2.3s-.5,1.6-.7,2.3c-.2,1.6.2,3,.3,4.5.3,1.4,0,3.3,1.4,4.4.3-.9-.2-3.8,1.4-3.3ZM96.8,247.5l.3-1.4c.3-1.2,1.2-1.6,1.9-2.4.2-.5.3-1.2.3-1.7.2-.3.2-.5-.2-.9-1.4,1.2-.5,3-3.1,2.4-1,.3-1,2.1-.9,3.1.2.3.5,1.2,1,1.2.2-.2.5-.2.5-.3ZM98.6,150.1c-.5-.7.2-1.9.3-2.6.2-.2.3-.3.7-.5.5-.2,1.2-.3,1.7.2.3.3.3,1,.5,1.6s.3,1.2.3,1.7c0,1.6-1,3.1-2.8,3-1.4-.2-1.2-2.3-.9-3.3Z"/>
  <path class="cls-1" d="M130.8,277.7c.2-.7.7-1,.9-1.6.7-1.2.5-2.8,1.2-4,.9-1.6.9-3.5,0-5-.5-1,0-2.3.7-3.1.9-1.4,2.3-2.3,3.1-3.7.3-1.2-.5-2.3-.5-3.5s.3-1.6.5-2.3c-.5-1,.9-3,1.2-3.7l-.5-1.2c0-.9.5-1.9.3-2.8-.2-.7-1-1.2-1-2.1v-.2c0-.2-.2-.2-.3-.3-.7.5-1.4,1.2-1.9,1.7-.2,1-.7,1.9-.9,2.8-.3,1-1,1.7-1.9,2.3-.9.9-1.9,2.4-3.3,2.1-.9-.2-1.4-1.2-1.4-2.1s.7-2.4,1.7-3.3c1-.7,2.1-1.7,3.3-2.3.7-.3,1-1.4,1.6-1.9.2-.9,1.2-1.2,1.9-1.6.5-.3,1.2-1,1.6-1.6q.2-.2.2-.3c-.2-1.2-.3-2.3,0-3.5.2-.9-.3-1.4-.3-2.1s.2-1.6.3-2.3c.2-.9-.3-1.6-.3-2.4.2-1,.3-2.1.2-3.1.2-1.2.5-2.3.5-3.3-1,1.6-2.1,1.2-1.9-.7,0-1.2.7-2.3,1-3.5.2-.9-.2-1.9,0-2.8,0-1.2.2-2.4.7-3.7.2-.5,0-1.2,0-1.7-.3-1.4-.3-3-.3-4.2.2-1.9,1.4-3.5,1-5.2-.5.7-1.6.9-1.9-.2-.2-.9.3-2.1.2-3.1,0-1.9.5-3.8.9-5.7.3-.7.9-1.4,1-2.1,0-.2-.2-.7-.3-.9-.5-1.2-.7-2.6-.5-4,0-1.2-.2-2.4,0-3.7.2-.2.2-.5,0-.7-.2-1-.3-2.3-.2-3.5v-2.6c0-1.4-.3-2.6-.2-4,0-.9.5-1.7.3-2.8,0-1-.2-2.1-.2-3.3.2-.5.2-1,.2-1.7s-.2-1-.2-1.7c0-1.6.5-3.3,1.6-4.5-.3-1.4-.5-3,.2-4.2,0-.2.2-.3.2-.3l-.5-1.4c-.2-.7-.3-1.4-.9-1.9-.9-1-1.4-2.3-1-3.7,0-1.4,0-2.6-.2-3.8,0-2.4-.2-4.7,0-7,0-1.6.3-2.8.5-4.4v-9.1c0-.9-.2-1.6-.2-2.4s.5-2.1.5-3.1c.2-1.6.2-3.1,0-4.5-.2-.5,0-1,0-1.7-.3-.9,0-1.9.7-2.6-.3-.7.3-1,.7-1.6v-1c-.7-.9-2.3-1.2-2.1-2.4,0-.5.3-.9.9-.9,1,.2,2.3.3,3.5.3.7-.2,1.2-.3,1.9-.3,1.9,0,3.7,0,5.6-.2,1.6.3,3.3.2,5,.5,1,0,1.9-.2,3,0,1,.3,1.7,1.2,2.4,1.9s.2.3.3.3c.5-.2.9-.5,1.4-.5.2-.2.5-.2.9-.2.7,0,1.2-.3,1.9-.3.7.2,1,.9,1.4,1.4.2.3.5,0,.9-.2,1-.5,1.4-2.1,2.6-2.4,1.4-.3,2.8-.2,4.2-.2s.3.2.5.2v.2c.7.3.3,1.9,0,2.4,0,.5.3.9.3,1.2-.2,1.4-.2,2.6,0,4,.2,1.2.7,2.3.2,3.5-.2,1-.7,1.9-1.2,2.8-.3,1.2,0,2.4.3,3.7.3.2.3.3.5.7.2.5.5,1.2.3,1.9-.2.5-.5.9-.7,1.2-.2.5.2,1,0,1.4-.2,1.4-.9,2.6-1,4,1.6,1.2,1,1.6,1.2,3.3-.2.7.3,1.2.5,1.7.2,1.7.2,3.5.3,5.2.2,1.9-.7,3.7-.3,5.6,0,2.3-.2,4.5-.2,6.8s.7,4.4.2,5.2c0,1-.2,2.6-.2,3.1,0,.9.2,1.7-.2,2.4-.3.7-1,.5-1.6.9-.7.3-1.2,1.2-1,1.9.2,2.6-1.2,2.8-2.4,4.5-.5,1-.9,2.4-1.2,3.7-.3,1-.9,2.1-.9,3.1.9,0,1.2-.9,1.6-1.6.2-.9,0-1.7.5-2.6l1-.9c.5-.3.9-1,1-1.7s.5-1.2.7-1.7c.2-.5.2-1.2.5-1.7.3-.3,1-.9,1.6-.9s.5.2.7.3c.5.9,0,1.9,0,3s0,1.6-.2,2.3c0,2.3.2,4.5-1.2,6.4-.2.3-.5.7-.5,1l.3,1.4c.2.7.7,1,.9,1.7s0,1.4,0,2.1.3,1,.5,1.7c.2.9,0,1.7,0,2.8-.2,1-.2,2.3-.3,3.3.3.9.5,1.7.3,2.6l-.5,1.2.2,1.9c.2,2.3.2,4.7.5,7,0,.3.3.9.3,1.2.3.2.7.3,1.2.2,1.2-.3,2.6-1.2,4-1.4.9,0,1.6.7,2.4,1,1.6.2,3.5.2,5,.3,1.2.2,2.4-.3,3.5,0,.5.2,1.2.3,1.7.3s1.2-.7,1.9-1c1.2-.7,2.8-1.4,4.4-1.2.7.2,1.7,0,2.3.7.3.7.2,1.7,0,2.4s-.7,1-1.2,1.4c-.2.7,0,1.6,0,2.3.2.3.5.3.9.5.5.3,1,1,1.2,1.7.3.9-.2,1.6-.5,2.4-.2.5-.2,1.2-.2,1.7,0,1,.7,1.9.7,3s-.2,1.7-.2,2.4c-.2,1.7,0,3.5-.2,5.4-.2,1.7-.5,3.8-.5,5.6.3.7,1,1.2,1.2,1.9.2.5.3,1.2.2,1.6,0,.3-.2.5-.3.5-.2.2-.5.2-.9.2h-.2c-.2,0-.5.2-.7,0-.3,0-.7-.2-1-.2h-.5s0,.2-.2.2c-.9.5-.3,1.9-1.2,2.6-.3.2-.7.2-.9,0l-.5-1c-.2,0-.5-.2-.7-.3-.5-.5-.2-1.4-.5-2.1l-.9-.5-1.7,1.6c0,1.4.2,2.8-.3,4.2-.3.9-.5,1.7-.2,2.8,0,.2.2.2.3.3.7,1,1.4,2.3,1.6,3.5.2,1,.2,2.3,1,3.1.3.5,1,.9,1.4,1.6.3,1-.7,2.3-1.7,1.7-1-.7-1.7-1.9-2.6-2.8-1,.5-2.4.9-2.1,2.3,1,2.3,1.6,2.6-.2,4.9-.2.9,0,1.9,0,3-.2,1.2,1.4,1.4,1.4,2.3s-.3,1.2-.2,1.7c.3.3,1.2.3,1.4.9.2.7-.3,2.1-1.2,1.9-.5-.2-1-.7-1.4-1-1.4.3-2.4-1.2-2.8-2.3-.9-2.6,1.4-5.4.5-8-1-.2-.7-1.4-1-2.1l-.5.5c-.3.7-.9,1.4-1,2.1-.5,1-1.6,2.1-2.8,1.6-.2,0-.3,0-.3-.2-.9,0-1.6-.7-1.6-1.4-.2-.5,0-.9.2-1.2,0-.3,0-.5.2-.7.3-.9,1-1.2,1.7-1.6.9-.3,1.7-.9,2.6-1.4.3-.3.7-.5.9-.9.3-.5.7-1,.5-1.6-.5-.5-.9-1.2-.9-1.9-.3-2.4,1.6-5,.2-7.3-.3-.9-1.2-1.6-1.4-2.6-.7-1.2-1.6-2.6-2.8-2.4-.3.7-1.4,1-1.7,1.9,0,1.6.9,3,.5,4.4,0,.9.9,1.6.5,2.4-.2.9-1,1.2-1.6,1.9-.3.5-.2,1.2-.5,1.7-.2.5-.5.9-.9,1.2-.3,1.2,0,3-1.4,3.8-.9.7-2.4.9-2.4-.7.2-1.4,1.4-2.4,1.7-3.8v-3.1c-.2-.9.5-1.6,1-2.1.2-.3.7-.9.5-1.4-.9-1.2-.3-2.6,0-3.8,0-.9-.2-1.6.2-2.3.2-.5-.3-1.6-1-1.4-.3.3-.5.9-.5,1.2l-1,2.1c-.5.9-1.6,1.4-2.1.2-.5-.9-.3-1.9-.5-2.8-.9.2-1.6.7-2.4.9-1.4.3-1.9-1-1.4-2.1.3-1.2.3-2.8-.7-3.5-.7-.2-1.4,0-2.1.2,0,.2-.3.2-.3.5,0,.5.2,1.2,0,1.9-.2.3-.3.9-.7,1-.3.3-.5.3-.9.5-.5.9-1,2.1-.9,3.1.5,1.9,2.4,3,3.1,4.9.7,1.9,2.4,3.1,2.8,5,.5,1.9-1.2,3.5-.7,5.4,0,.2,0,.3.2.3,1.7,1.2,1.2,3.5.9,5.2,0,.2,0,.5.2.9.7.9,1,1.9.7,3-.3.7-.9,1.4-.3,1.9,1,.7,1,2.3.2,3.3-.3.7-1.2.5-1.6-.2-.3-.5-.2-1.4-.5-1.9-.2-.5-1.2-.5-1.4-1.4,0-.5.2-1,0-1.7-.7-.9-1-2.1-1.7-3.1-.3-.5-.9.3-1.4.3-.5.3-1.4.3-1.7.9.5.3,1.2.9,1.7,1.4.3.2.5.3.9.7.7,1,.2,2.3,0,3.3,0,1,.5,2.1.9,3.1.5,1.4.5,3.1-.3,4.4-.2.5-.5,1-1.2,1.2-1.9.3-1.7-3.5-1.9-4.7-1.4,0-.9-1.9-.9-3,.7-2.4-.9-3.5-3-4.2-1.9-.5-5.9-.3-4.7-3.5.3-.5.9-.7,1.4-1,1.2-.5,2.6-1.2,3.8-1.9,1-.9,2.6-2.1,2.3-3.5-2.4-.3-3-2.3-2.3-4.5.2-.7.7-1.6.3-2.3-.7.3-1.2,1-2.1,1.4-.9.3-1.7.2-2.4.7-.3.5-.3,1-.7,1.4-.2.2-.5.2-.9.5-.7.7-.9,1.6-1.7,2.1-.5.3-1.2.9-1.7.7-1.4-.9.2-3.5,1-4.4.5-.3,1.2-.7,1.4-1.4,0-.5-.2-.9-.2-1.4s.2-1.2.9-1.4c.9-.2,1.9-.2,2.6-1,.3-.3.9-.9.5-1.4-.9-.7-1.9-1.4-3-1.6-2.6-.3-4.2,3.7-4.4,5.7.2,2.8-2.6,2.8-4.2,4.2-.5.7-.3,1.7-.5,2.8-.2,1-.7,1.9-1.6,2.6-.7.7-1.9,1-2.1,2.1,0,1.2.2,2.4-.3,3.5-.2.3-.3.5-.3.9.2.7.5,1.4.5,2.1-.2.5-.5.9-.7,1.4-.3,1.9,1.6,3.7.5,5.6-.2,1-.9,1.9-1.6,2.6-.3.3-.9.5-1,1-.3,1.4.5,2.8.2,4.2-.3,1.2-1.7,1.7-3,1.4-1.2-.3-2.4-1.6-2.1-3ZM143.7,218.8c.5-1.7.2-3.5,1.4-4.9.2-.3.7-.7,1-1,1.2-1.4.5-3.7-.3-5-1-1.6-.9-.9-2.3-.7-.7,1.4-1.7,2.8-2.1,4.4,0,1,.9,1.9,1.2,2.8.3,1,.5,2.4-.3,3.5-.5.9-3.7,3.3-1.2,3.5,1.4-.2,2.3-1.4,2.6-2.4ZM144,240.4c.3-1,.9-1.9,1.6-3,.2-.3.5-.7.9-.7l1.4-1c.9-.5,1.2-2.1-.5-1.9-1.4.3-2.4,1.6-3.8,2.1-.3.2-.9.7-1.2.5,0,.5-.2.9,0,1.2.3.7.2,1.4.2,2.1s-.5,1.4-.7,2.1-.5,1.7.2,2.1c1.2-.5,1.6-2.3,2.1-3.5ZM164.2,252.1c.2-1.9.5-4.2-.9-5.7-.5-.7-2.4-1.2-2.1.2q.2.2.2.3c.5.9,1,1.6,1.4,2.4.5,1,.2,2.3.5,3.3v.5c0,.5-.2.9-.2,1.2.9-.2.9-1.4,1-2.3ZM189.8,247.9c0-.7-.2-1.2-.3-1.7-.2-.2-.2-.5-.5-.5h-.5c0,.3,0,.7.2,1l.2.7c.2.5-.7,1.7.2,1.9.5-.2.7-1,.9-1.4Z"/>
  <path class="cls-1" d="M198.5,265.8c0-1.6,1.4-2.8,2.3-3.8.5-.7-.2-1.4.2-2.1.3-2.1,1.6-3.7,3-5.2,1.9-3,3.7-6.3,4.4-9.7.2-1.2.5-2.3.5-3.5s-.5-2.6-.3-4c.2-1.4,1.2-2.3,1.7-3.5.3-1.6-.7-3-.7-4.5s.7-2.6.9-4c0-.3-.2-.9-.3-1.2-.3-.7-.3-1.6-.3-2.4.2-1.7.3-3.5.3-5.2-.2-2.1.5-4.2,2.3-5.6.3-.3.7-.9.5-1.6-.2-2.4-2.3-4-.2-6.4,1-1.2,1.4-3,2.3-4.5.7-1.2,1.6-2.4,1.7-3.8.2-.7.2-1.2.2-1.7s-.2-.3-.2-.5c0-1-.2-2.1-.2-3.1v-1.9c-.3-1.2-.3-2.6-1.2-3.7h-.3v-.2c-.2,0-.3.2-.3.3-.3.9-.3,1.9-.7,3-.5,1.7-.3,3.5-.2,5.2,0,1.7-.3,3.7-1.2,5.2-.7,1-2.1,2.4-3.5,1.7-1.4-1.6,0-11.3.5-13.6.9-3,.3-5.9.9-8.9.3-2.6.5-5,0-7.5-.9-3.1-1.2-6.4,0-9.6.3-.7.5-1.6.2-2.3-1-2.1-.5-4.5-.7-6.8,0-1,0-2.1.2-3.1.2-1.6.9-3.1.7-4.9-.2-1.4-1-2.6-1.6-3.8-.7-1.6-.7-3.3.3-4.7.2-.5.5-1,1.2-1,.7.2,1,1.2,1.7,1,.5-.3.2-1.2.3-1.7-.2-1.7-.2-3.5-.5-5-.5-3-2.4-5.4-3-8.4-.2-1.2-.5-2.4-.5-3.8.2-1,.5-2.1.7-3.1.3-1.4,0-3-.3-4.2l-.7-2.8c0-.2-.2-.2-.2-.3-1-2.6.5-4.7,3.1-4.7s.9.2,1.4.3c.3.2.7.2,1,.3.5.3.9.9,1.4.9.9,0,1.7-.2,2.6-.5.9-.5,2.1-1,3.1-.3.2,0,.2.2.3,0,.5,0,1.2-.3,1.9-.3.7.2,1.4.5,2.1.7.7.2,1.2.9,1.9.9,2.1-.5,4.4-.7,6.4-.9,1.6-1,4-2.1,5.4-.5,1,0,2.1,0,3.1.5,1,.2,2.3.3,2.8,1.4.5.7.3,1.4.3,2.1.3,2.1,0,4.2-.2,6.1-.3,3-1.6,5.7-1.4,8.7.3,1.2.9,2.4,1,3.8.3,1.9,0,4,.3,5.9.5,2.4.5,5,.5,7.5.3,2.4,1.2,4.7.7,7.1,0,1.6-.2,3.3-.9,4.7s-.9,1.2-1,1.9c-.2,1,0,2.1.3,3.1v.9c.5.9,1,2.3,1.2,2.6,1.6,3.3.2,7.1-.5,10.4-.3,1.7-.3,3.7-.5,5.4-.2.3,0,.9.2,1.2,1.4.9.9,2.6.9,4,0,2.6,0,5.2-.5,7.8-.2,1.2-.7,2.3-1.2,3.5-.5,2.4-1.4,4.7-2.3,7,1.6-.9,2.1-2.6,2.8-4.2.3-.7,1.2-1.4,1.7-.3.2,1.7-.2,3.7-.3,5.4-.2,1.6-.2,3.1-.7,4.7-.9,2.6-4.4,5.9-1.9,8.7,1.2.3,1.6,1.6,1.9,2.8.3,1.4.7,2.6.5,4.2,0,.9.2,2.1-.5,2.8-.3.5-.9.7-1,1.2-.5,1.2,0,2.4,0,3.7.2,2.3,1.9,4,1.9,6.1s0,2.6-.2,3.8c.2.5.2,1.2.2,1.6.2,1-.5,1.9-1,2.8-.7,1.2-1,2.6-.3,3.8,1.6,3.7-.5,4.9-3.1,6.8-.9.9-1.4,2.1-2.4,2.8-.9.5-3,.3-2.8-1,.2-1.2-.3-2.4.2-3.7.2-1.2,1.7-2.1,1.6-3.5-.2-1.2-1.4-1.9-1.6-3-.2-.7.2-1.4.2-2.1,0-1-.3-2.3-1.2-3.1,0,.2-.2.2-.2.2-.5.3-.5.9-.9,1.4-.3.7-1.4,1-1.7,1.9-.2.7-.2,1.6-.9,2.1-.3.5-.7.9-.7,1.4-.5,1.9,1.6,3.3,1.6,5.2-.3,2.1-2.4-.5-3-1.2-.7-1.2-1-2.4-1.6-3.7-.3-.7-.5-1.4-.5-2.1-.2-1.2.5-2.1.3-3.1-.2-.9-.3-2.8-1.6-2.6-.5.2-.7.5-1,.9-.2.2-.3.5-.5.9-.2.3,0,.7,0,1-.2,1.2-.9,2.3-1.7,3-.3,1.6.5,3.1.3,4.5-.2,1-.3,1.9-.3,3,.2.9.2,1.9.3,2.8.2,1.4-.5,2.6-1.4,3.8-.3.9-.7,1.9-.7,3s.9,2.3,1.2,3.5c.2.9-.2,2.4-1.4,2.3-1.2-.5-1.7-1.9-2.3-2.8-1.2-2.3-1-4.9-.5-7.1l1.6-4.2c.2-.5.2-1.2,0-1.9-.5-.7-1.2-1.2-1.4-1.9-.5-1.6.5-3,.5-4.5s-.2-.9-.5-.9c-.9-.2-1.7.7-2.1,1.4-.5,1.2-.5,2.4-.9,3.7-.3,1.2-1.6,2.1-2.1,3.3-.2.5,0,1.2.2,1.7.2,1-.3,2.1-1,3-.9,1-2.3,1.6-3.7,1.4-1.2.3-1.9,1.7-2.3,2.6-.5,1.4-.3,2.8-.9,4-.2.7-.7,1.2-1.4,1.4-.2.2-.7.2-.9.3-.2,2.8.3,5.9-1.6,8.4-.3.5-.9,1.2-1.4.9-1-2.3-2.6-4.5-2.4-7.1ZM235.6,265c0-1.2,0-2.3-.3-3.5-.5-2.1-2.3-3.7-2.3-5.9-.2-1.4,1.2-1.9,2.4-1.7h.3c0-.2.2-.2.3,0,.9,0,1.7.3,2.3,1,.7.7,1.4,1.4,1.7,2.3.3.9.2,1.9-.3,2.6-.3.3-.5.5-.7.9-.5,2.1.7,6.1-2.4,6.3-.9-.2-1-1.2-1-1.9ZM238.2,228.9c.2-.7.7-1,1-1.6-.3-1.4-1.2-2.4-1.7-3.7,0-.5-.3-1-.7-1.4,0,.7,0,1.4-.2,2.1,0,.3-.2.7-.3,1-1,.9-1.7,1.9-1.6,3.3q0,.3.2.5c.3.7.7,1.4,1.4,1.6.9-.3,1.4-1.2,1.9-1.9Z"/>
  <path class="cls-1" d="M404.8,273.5c-.5-.7-1.4-1-1.9-1.7-.5-.9-.5-1.9-.9-2.8-.7-2.8-3.8-3.7-6.1-5.2-.7-.5-1.4-1.6-2.4-1.6-1.2.3-1.4,1.7-2.3,2.6-.5.5-1,.2-1.7.2-.9.7-1.2,1.9-2.1,2.6-.3.7-.5,1.2-.9,1.7-.9.5-.9-.9-.9-1.4-.2-.5.2-.9.5-1.4-.2-1.2.2-2.4,1-3.3.5-.7,1.4-.7,2.1-1,1.7-.9.9-3,.7-4.5,0-.9.3-1.6.7-2.3,2.6-4.5-.2-3.5.2-5.6l.5-1.9c-.2-.9.2-1.7.2-2.6.2-1.6.7-3.3-.2-4.9-.2-.3-.9-.5-1-1-.5-1-.7-2.3-.9-3.5-.2-1.4,0-2.1-1.6-1.4-.9.3-1.6,1.2-1.9,2.1-.2.3-.2.7-.2,1,1.2,1.2.7,2.6,0,4,.3,1,1,2.4.5,3.7v.3c.5.7.3,1.7,0,2.4-.2.5-.3,1-.7,1.4-.2.3-.7.5-1,.2-.3-.2-.5-.9-.7-1.4-.2-.9.3-1.7,0-2.6l-.2-.2c0-.2,0-.3-.2-.3-1-.5-.9-1.6-1.2-2.4-.5-1-1-2.1-.9-3.3,0-.5.2-1,0-1.6-.2-.3-.3-.7-.3-1-.2-1.2,0-2.4-.3-3.7-.3-.3-1,0-1.4,0-1,.3-1.6,1.2-1.7,2.1l-1,2.8c-.7,1.6-.7,3.5.3,4.7.5.5,1.4.7,2.1,1.2.9,1-.2,2.4-.5,3.3s-.5,1.6-.5,2.4c-.3,3.7,3.1,4.2,2.6,8-.2.9-.2,3.5-1.6,2.8-.5-.7-1.2-1.4-1.7-2.3-.7-1.4-1.2-3-2.1-4.4-.3-.7-1.4-.9-1.9-.2-.9,1.4-1.7,2.6-3.5,2.6s-.7,0-.9.2c-.5.2-.7.7-1.2,1-.3.3-.9,1-1.4.3-.9-1,.3-4.4,1.4-5.2,1.4-1,1.6-1.2,1.2-2.6-.3-1-.7-1.9-1.4-2.8-.7-1.4-.3-3.1,0-4.7.3-.5.5-1.2.7-1.9.3-.3.5-.9.3-1.2-.3-.9-1-1.6-1.9-1.6s-.9.3-1.2.5c-.7.5-.7,1.2-.3,1.7,1,1.6.3,3.5-1.7,4.4-.9.3-1.9.3-2.4,1.2-.2.3-.2.7,0,1,0,.2-.2.3-.3.3v1.2c-.2,1.6-.3,3.1-.3,4.9.9,1.4-.7,3.5-2.3,3.8-.2,1.4-.5,2.8-1.6,3.7-.2.2-.3.3-.3.5-.2,1.4-.2,2.8-.9,4l-1,2.4c-.2.3-.5.9-1,.5-1.4-1.4-.7-3.5-.5-5.2.2-1.6.2-3.3,1-4.7.9-1.6,2.3-3,3.1-4.5.3-.9-.2-1.6-.3-2.4-.2-1.7,0-3.3.2-5-.2-1.4,0-2.8,0-4l-.7.7c-.3.2-.9.2-1,.5-.3.7-.7,1.7-1.7,1.6-1.2-.5-.2-2.4.2-3.5.7-1.6,2.3-2.8,3.1-4.5.3-.2,1.2-2.3,1.9-3,.2-.3.3-.7.5-.9-.3-1.2-.3-2.6-.5-3.8-.2-2.1-1-4.2-1-6.3.2-1.4.7-2.6.2-3.8-1.7-4.7,2.4-6.3,6.3-7.5,1.4-.3,3-.2,4.2-1-.7-.2-1.2,0-1.7.2-1.7,0-3.8,0-5.4-.9-1.6-.7-2.4-2.1-3-3.7-1-2.4-1-5-1-7.7-.2-2.4-.5-4.9.3-7.1.3-.7.9-.2,1.4-.2s.3,0,.3-.2c0-.5-.2-1-.2-1.7-.2-1.6-.3-3.3-.7-4.9-.3-1.7-1.2-3.3-1.7-5-.2-1.6-.3-3.1-.3-4.7-.2-1.9-.7-3.8-.5-5.7.2-1.6.9-3.1,1-4.7.2-3.1-1-5.9-1.7-9.1-.2-1.4,0-3.3-.9-4.5-.7.9-1.2,1.9-1.6,3-.3,1-.2,2.3-.3,3.5-.2,1.9-1.6,3.5-1.7,5.6,0,2.4,2.4,4.7,1.2,7.1-.2.5-.5.7-.9,1-.2.5-.3,1.2-.7,1.6-.3.3-1,.5-1.2,1,.3,1.7.7,3.5.9,5.2.2.9.2,1.9,0,3-.2,1-.7,1.9-.9,3,0,1.4-.2,2.8-.3,4.2.2.9.3,1.6.3,2.4v.7c.2.2.2,1,.2,1.2.2,1.9.5,3.7.5,5.6v2.3c0,.5.3,1,.2,1.6-.2,1-1.2.7-1.4-.2-.5-1-1.2-2.1-1.6-3.3-.2-.9-.3-1.7-.7-2.6q0-.2-.2-.3c0,.2-.2.2-.2.2-.5.9-1,1.6-1.4,2.4-.2.3-.2.7-.2,1v.5c.5.7,1,1.4,1.4,2.1,1,2.8-1.7,5-1.9,7.7.7,1.9,1,3.7,0,5.4-.7,2.1-2.6,3.5-3.7,5.2,1,1.9,1.2,4.4.9,6.4-.5,1-.7,2.3-.9,3.5.3-.5,1,.2.9.7-.2.5-.5,1-.9,1.6v.2h.3c.2,0,.2.3,0,.3.3.5,1,.9,1.6,1.2.9.7.7,1.7-.3,2.1-.7.3-1.4.2-2.1.5.3.2.5.7.9.9h1.4c.5,0,.9.3,1.2.7.9.3,2.3.3,2.8,1.4.2.5-.2,1.4-.7,1.7-.7.3-1.4-.3-1.9-.5-1-.5-2.1-.7-3.3-.7l-1.2-.2c-.2.7,0,1.6.3,2.3.5.7,1,1.4,1.6,2.3.5.5.9,1.2.5,2.1-.3.5-1,.9-1,1.7.2.9.9,1.4,1.6,1.9.2.2.3.2.7.2.7.2,1.6.3,1.7,1,.2.5,0,1,.2,1.4.7.5.9,2.1-.2,2.1-.3-.2-.5-.3-.7-.5-.9-.9-1.6-1.7-2.6-2.3-.2.9.2,1.4.5,1.9.3.7,0,1.2-.3,1.7-.2.9,0,1.7-.2,2.6.3.9.2,2.4-1,2.4-1.6-.2-1.6-1.6-1.4-2.8,0-.9,0-1.7-.3-2.4-1.4-.7-2.1-1.6-1.9-3.1-.2-2.3,1.2-4.4.9-6.4-.2-1.7-2.3-2.4-2.3-4.4s.5-2.3,0-3.3c-.3-.7-.9-1.4-1.2-2.3-.2-.9-.9-1.6-1.7-1.4-.5.2-1,.5-1,1s0,.7-.2.9c0,.3-.3.7-.5,1,0,.5.2,1,.3,1.4.3.9.3,1.7.2,2.4,0,.2-.2.7-.5.5-.2,0-.3-.2-.3-.3.2-.9-.3-1.6-1-2.1-.2-.2-.7-.2-.9-.3-1.2-.9-.3-2.4-.7-3.5-.2-.3.2-.7-.3-.9-.5,0-1.2,0-1.7.2-.3.3-.3.5-.5.7-.5.5-1,1-1,1.9-.2.7,0,1.2.2,2.1.2.7-.5,1.4-.7,2.3.5.9-.2,1.7,0,2.8,1.2.5,1.2,3.3-.7,2.6-2.1-1.2-1.4-4.4-2.4-6.3-.3-.3-.9-.5-1-1-.2-.3-.2-.9-.2-1.2,0-.9,0-1.6-.2-2.3,0-.7-.5-2.4-1.4-1.4.2,1.6-1.7,2.8-3,2.1-.3,1.2-.9,2.8-2.3,3.1-.3,1.4-1,2.4-1.7,3.7-.3.9-.9,3.3-2.1,3.3-2.4-1.4,2.3-10.8,2.3-13.6s-1-3-1.2-4.5c-.2-1.4.2-2.8.3-4-.3-1.2-1.4-2.1-1.6-3.3-.2-.9-.3-1.7-.2-2.4.2-.5.3-.9.3-1.2,0-.9-.2-1.9-.3-2.8-.5.9-.5,2.8-1.7,2.6-1-.3-.7-2.4-.9-3.3-.5-2.3.7-4.4.7-6.4-.2-1.4-.5-2.6-.5-4-.3-.3-.2-1.2-.3-1.6-.2-1.4,0-2.8.2-4,0-.3-.2-.7-.3-1-.3-.3-.5-.9-.7-1.4-.2-.7,0-1.4,0-2.1,0-1.6,0-3-.3-4.5-.2,1.4-.3,2.6-.7,3.8-.2.5-.5,1.2-1,1.6-.5.2-.9,0-.9-.3-.3-1-.2-2.1-.2-3.1.2-1.2,0-2.6.2-3.8.2-1,.5-2.1.5-3s-.5-2.3-.5-3.5.7-2.8.9-4.2c.2-2.8-1.7-5.2-1.4-8,1.2-2.6-.7-4.7-.9-7.3-.5-2.6.7-5,.2-7.7-.2-.7-.7-1.4-.9-2.3-.3-1.4,0-2.8-.5-4.2-1.6,1.6-1.7,3-1.7,5-.3,2.6.2,5,0,7.7-.2,1.6-.2,3.1-.7,4.5-.3.9-.9,1.6-1.2,2.3,0,.5,0,1,.2,1.6.2,2.4.5,4.9.7,7.3,0,2.1-.3,4-.2,5.9,0,2.8.3,5.6-.2,8.4-.2,1.2-.9,2.1-.5,3.3v1.6c.3.5.5.9.7,1.4.5,1.2.2,2.8-.3,4-.3,1.9-1,3.8-1.7,5.6.2,1,.5,1.9.7,3.1v.9c.2.2.3.3.3.5.2,1,.9,2.1,1,3.3.2.3.2.9,0,1.2-.5.5-.7-.3-1.2-.3-.2,1.4-.7,2.6-.7,4,.5,2.1,1,4.4.9,6.4-.2.5,0,1.2-.5,1.4-.3.2-.5,0-.7.2-.7.3-1.4,1-1.9,1.6-.7.7,0,1.4.3,1.9.7,1,1.6,2.1,1.9,3.5,0,0,.2,0,.2.3,0,1.6.7,3.1,1.4,4.7.5,1.2.3,2.4.2,3.7.5,1,.9,2.1.9,3.1s.3,1.4.3,2.1-.2,1-.2,1.6c.3,1.2.9,2.3,1.6,3.3.3.5,1,.9,1.4,1.4.5.7.7,1.7,1.2,2.4,1.4,1.4,2.4,3.1,2.8,5,.2.9-.5,2.3-1.6,1.6-.9-1-1-2.6-1.7-3.8-.5-1.2-1.9-1.9-2.8-2.8-.7-.5-1.2-1.4-1.6-2.3-.7-1.6-1.7-3-2.3-4.5-.2-1.7.2-3.3.2-5s-1.2-1.9-1.7-3c-.5-1-.3-2.4-1-3.5l-1.7-1.6-.2-.2c-1.2,1.7-.2,3.8-.7,5.6-.2.5-.9,1.6-1.6.9-.9-1-.3-2.3,0-3.3.3-1.2.2-2.4-.3-3.5-.3-.7-1.4-.9-1.9-1.4-.5-.7-.5-1.7-1-2.4-1-1.6-1-.2-1.6.7-.2.7-.5,1-.7,1.6-.2,1.6.2,3.1-.2,4.7-.7,2.4-3,3-.2,5.2.3.5.5,1.2,1,1.7,1.2,1,2.6,1.9,3.7,3s.3.9.2,1.2v.3c.2.9,1,1.6,1,2.4.2.7,0,1.2.3,1.7.3.5.9,1.7.7,2.6.3.7.7,1.2.7,2.1-.2.9-.7,2.4-1.9,2.1-1.4-.7-.5-2.4-.7-3.5,0-.7-.3-1.2-.3-1.7-.9-1.2-1.4-2.8-2.3-4-.5-.9-1-1.6-1.7-2.3-.7-.3-1.4-.5-1.7-1-1-1-.7-3-2.1-3.5-.7,1-.2,5.9-2.3,4.4-.7.9-1.4,1.7-2.1,2.8-.7,1.4-1.2,3-2.3,4.4,0,.2-.2.3-.2.5,0,1.4.3,3.1-.5,4.5-.3.3-.7.5-1.2.5-.7-.2-1.4-.5-2.1-.7-.3-.2-.5-.5-.7-.9-.3-.3-.5-.7-.5-1-.3-.9.5-1.4.9-2.1,1.2-1.6,1.9-3.5,2.8-5.2.3-1,1-1.9,2.1-2.3.3-1.4,1.6-2.1,2.3-3.1.5-.5.5-1.4.7-2.1,0-1.4-1.4-2.1-1.6-3.5-.2-1,.5-1.9.7-3,0-.7-.3-1.2-.3-1.7,0-1.4-.5-2.3-1.2-3.3-.3-.5-.3-1.2-.7-1.7-.2-.3-.7-.2-1-.2-.5.5-.9,1.2-1.2,1.9,0,1.7.9,3.5.2,5-.5,1.6-1.6,2.1-3.1,1.4-.2,1.2-.3,2.4-.3,3.7s.2,1.9-.3,2.8c-.2.5-.9.7-.9,1.2.9,1.2,2.8,2.8,1.4,4-.9.5-1.9,0-2.3-.9-.5-.7-.7-1.7-1.7-1.9-1-.2-2.8.2-3.5-1-.3-.7-.3-1.9-1.4-2.1-.5-.2-.9-.3-1.4-.3-.9.2-1.7.9-2.4,1.6-.2.2-.3.3-.3.7.2,1.7-1.7,2.6-2.3,4.2.2.5.3,1,.3,1.7s.3,1.4.3,2.1-.2,1-.2,1.7c-.2.7,0,2.4-1,2.4-.3,1.2-.5,2.4-.3,3.7,0,.9-.3,3-1.7,2.4-.2,0-.2-.3-.3-.5-.2-.3-.2-.7-.3-1-1.7-1.9-.5-3.5.3-5.6l.2-1.7c-.2-.5-.5-1-.3-1.6,0-.5.3-1,.3-1.6.3-1.7-1-3.1-.7-4.7.5-2.3,2.3-3.8,3.7-5.6.3-.5,1-.9,1.2-1.6,0-1.9.7-3.5,1.2-5.4.5-.7,1-1.6,1.2-2.4l.5-3.1h-.2c0-.3,0-.5.2-.7,0,0,0-.2.2-.3,0-.3.2-.9.3-1.2l.2-.7c-.2-.9-.3-1.7-.2-2.6v-.3c0-.9.3-1.9.7-2.8.2-1.4,1.6-2.6,2.8-3.5.2-.2.9-.3.5-.7-.7-.9-1.4-1.6-1.6-2.6-.3-1,.2-2.3,0-3.3-.5-1.4,0-3,.3-4.2.2-.5.5-1,1-1.2.2-.2.5,0,.9-.2.9-.9,1.9-1.7,2.1-3-2.4-.3-3.1-1.2-3.1-2.6s.3-2.1.5-3.5c.2-2.3-.2-4.5.2-6.8l.7-3.3c.2-.2.2-.3,0-.3-.9-2.1,0-4.4.5-6.3.2-2.1.7-4.2,1-6.1.2-1.7-.2-3.3,0-5,.2-.7.3-1.4.7-1.9v-.7c.3-.2.9-.2,1.2,0,.2.2.3.5.7.7,2.1,0,2.4,3,1.9,4.5-.2.5-.5.9-.7,1.2,0,.7-.2,1.2-.3,1.9,0,1,.2,2.4,1,3.1.2-.3.2-.9.3-1.2.3-1,.9-2.1,1-3.3.2-.9.2-1.7.2-2.6s.2-2.1-.2-3.1c-.5-.5-1.2-.7-1.6-1.2-.5-.5-.9-1.2-1.6-1.6-.5-.5-1.4-.9-1.4-1.7-.5-.3-.7-1.2-.5-1.9,0-1.4.2-3,.7-4.4.2-.7.2-1.4.5-2.1.3-.9,1.2-1.4,1.9-1.9-.9-2.6-1.7-3.7,0-6.3-1-1.7-1-3.3-.3-5,0-.9-1-6.1.7-5.4.3-.9.9-1.4,1.2-2.3v-.2c-.5-1-.3-2.3-.2-3.3,0-2.3.7-4.5.2-6.6-.2-1.6-1.2-3.3-.2-4.9.3-.5,1-.7,1.2,0,.7,1.2.5,3.1,1.9,3.8-.2-2.1-1.4-3.8-1.2-5.9,0-.9.3-1.6.5-2.4.2-1.6-1.7-2.4-1.4-4,.2-1,.9-1.9,1.4-2.8.3-1.4-.5-2.6-.2-3.8.2-.9.9-1.4,1.4-2.1-.9-1.6-1.7-3.5.9-3.5,1.4-.3,2.8,0,4,.2,1,0,2.1-.3,3.1,0,.7,0,1.4,0,2.3.2.3.2.9.3,1.4.3.5-.2,1.2-.2,1.7-.2.7.2,1.2.7,1.9.9,1.2.9,2.6.5,4,.3,0-1,1.6-1.6,2.3-1.9.7-.2,1.4.2,2.1.5.5.2,1,0,1.4,0,1.6-.2,3.1-.3,4.5-.3,1-.2,2.3-.3,3.3.3,1.7,1,3.8.7,5.4,2.1.7-.9,1.6-1.9,2.8-2.3.5-.2,1.6-.5,1.9.3.2.2.2.3.2.5.2,0,.3.2.3.3.5.9.3,1.7.5,2.8.3.5.7.9.9,1.4.3.9.5,1.9.7,3,.7.7,1,1.9,1,3s-.2,1.6-.3,2.3c0,.2-.2.3-.3.5l.5,3.3c.2,1.7,1,3.3,1.6,5,.3,1.2.9,2.4.9,3.8-.2,1.4-1,2.4-1.2,3.7-.7,3,2.3,4.9,3.1,7.5.3,1.2-.2,2.6,0,3.8,1,2.1,1.2,4.4,1.6,6.8.3,1,.7,2.1.5,3.1,0,1-.5,2.1-.5,3.1s.2,1.2.2,1.9c0,1-.5,2.1-.3,3q.2.2.3.2c.3.2.9.5,1,.9.9,1,1,2.8,1,4.2s-.5,1.9-.5,3-.3,2.4-.7,3.7c1.2.9,2.1,2.1,3,3.1.2-1.9.9-3.8.5-5.7-.2-1-1.2-2.3-.5-3.5.2-.3.3-.7.3-1-.2-.5-.3-1-.3-1.7,0-1.6,1.4-3.8,3-4.4-.7-.7-1.4-1.4-1.7-2.4-.2-.7-.2-1.6-.3-2.3-.2-1.7,2.3-5.7,3.3-2.6,0,1-.2,1.9-.2,3,.3.7.7,1,1.2,1.6,0-.7.5-1.2.5-1.7-.3-.3-.7-.9-.9-1.4-.3-.9.2-1.9-.3-2.6-.7-1.4-2.8-2.1-2.3-3.8.3-1.2.5-2.4,1.2-3.3.3-.3.7-.5.9-1,0-1,.3-2.1.2-3.1-.3-1-.3-2.1,0-3.3.2-.7.5-1.4.7-2.1.2-.9,0-1.6.2-2.4.2-.9.7-1.4,1-2.3,0-.5-.2-1.2,0-1.7.2-1,.3-2.1.9-3.1.7-1.2,1.6-2.4,1-3.8-.3,0-.5-.2-.7-.3-.7.5-.5,1.6-1.4,2.1-1.2.7-2.3-.5-1.9-1.7.2-1.4,1-2.4,1.7-3.5.9-1.7,1-3.7,2.1-5.4.9-1.6,1.2-3.5,2.3-5.2v-2.3c0-2.8,1-1.7,3-2.1.5-.2,1-.7,1.7-.5.5.2,1,0,1.6.2.9.3,1.2,1.2,1.7,1.7s1,.7,1.2,0c.5-.5.7-1.4,1.6-1.7.3-.2.9-.2,1.2-.3l1.2-.2c1.4-.2,1.7.3,2.3,1.6.2.2.3.2.7.2l1.2.5c.9.5,1.9.2,2.8.3.5.2,1.2.3,1.7,0,.2,0,.2-.2.2-.2.2-.7.5-1.4.9-1.9.2-.3.5-.7.7-.7h.9c1-.3,2.1,0,3,.3.7,0,1.2-.2,1.9-.2.3.2.7.2,1.2.3.5-.2,1.2-.3,1.7-.3,1,.3,1.7,1.2,2.1,2.1.2.9,0,1.7.3,2.4.2.2.2.5.5.7.7-.7,1-1.7,1.7-2.6,1.4-2.4,3.1-2.8,5.9-2.4.5.2.9.3,1.4.3h.3c.2.2.2.9-.2.7,0,0-.2.2-.3.2.2.2.3.5.5.5.2.2.3.5.5.9.5,2.1,1,4.2,1,6.3.2,2.6.7,5,1,7.5l1,11.7c.7,4.5,1.2,9.2.9,13.8.2,1,.3,2.3.2,3.3.2.5.2,1,.3,1.6v-.2c.2,0,.3.2.3.2.5,1.4-.3,2.6-.5,3.8-.2.7.2,1.2,0,1.9,0,.3-.3.7-.7.9-.9.7-1.6,1.4-2.1,2.3-.3.7.2.7.7.9,1.9.2,4,.5,3.5,3,0,1-.3,2.1,0,3,.2,1.6.7,3,1,4.4.5,1.4.3,3,.5,4.4s.3,3,.3,4.4-.3,2.4-.3,3.7l.5,3.5c.2,3.3,1,6.4.9,9.7,0,.9.3,1.7.9,2.6.3,1,.5,2.1.9,3.1.7,1.7-.5,3.1-1,4.7-.2.5-.2,1-.2,1.6.2.9.7,1.7.7,2.6s-.7,1.7-.9,2.6c-.3.7-.3,1.6-.5,2.3,1.9,1.2,3.7,2.3,3,4.7,0,1,0,2.1-.2,3.1-.2.9,0,1.9,0,3,.2,0,.5.2.5.5,0,.7.2,1.2,0,1.9v.3l-.5.7c.9.7,1.2,1.7,1,2.8.2,1,0,2.3-.3,3.5,0,.5.5,1,.9,1.6,0-.2.2-.3.2-.3.2-.2.3-.2.5-.2.2.2.3.3.3.5.3,1,.3,2.3.5,3.1,0,.3.3.5.5.9.5.7.9,1.6,1,2.4s-.2,1.6-.3,2.4c-.2,1.2-.2,2.3.5,3.3.3.9,1.6,1.2,1.7,2.3.2.9-.2,1.6-.3,2.4-.3.5-.3,1.2-.9,1.7-.9.7-2.1.3-3,.9,0,1.2-.5,2.1-1.2,3-.3.7-.9,1.2-.7,1.9.3.7,1,.9,1.6,1.2.9.3,1.7,1,2.6,1.4.7.3,1.2.5,1.7,1,.9.9,1,2.3,1.7,3.3.5.7,1.4,1,1.9,1.9.7,1,.7,2.4,1.4,3.7.5.9,1.7,1.6,1.7,2.8s-.2,1.4-.7,1.6c-1-.2-1.4-1.2-1.7-1.9ZM262.7,240.4c-.9-1.2-1-2.6-.5-3.8.2-.3.2-.7,0-1-1-1.7-2.4.3-3.3,1.2,0,.3-.5.5-.7.2-.5.3-2.3,1.7-.9,1.9.7.2,1.4-.2,2.1,0,1.6.9,1.6,3,2.3,4.4,1-.3,1.4-1.9,1-2.8ZM260.6,256.1c.5-1,1.4-2.1,2.6-2.3.3,0,.5.2.5.5.9.7.7,1.9-.2,2.4l-1.2.5c-.3.5-1,1-1.7.7-.7-.5-.3-1.4,0-1.9ZM266,265.6c.9-.7,2.8-1,3.8-.3,1.2.7,1.2,3.3-.7,2.8-.5,0-1-.3-1.7-.3-.5.3-1,.9-1.7.7-2.3-1-1.2-1.9.3-2.8ZM271.1,201.8c.2-.3,0-.5-.2-.9-.7-1.2-1.2-2.6-2.4-3.3-.3-.2-.7.2-1,.3.3,1,.5,2.1.7,3.1.2.5.2,2.6,1,2.4.9-.2,1.6-1,1.9-1.7ZM277.3,238c.2-1,.3-1.9-.3-2.8-.2-.2-.7-.2-.9,0-.3.3-.3,1.2-.2,1.7l.5.5c.2.2.3.2.3.3q.2.2.2.3c.2-.2.3-.2.3-.2ZM287.8,248.6h-.2c-.2.2-.5-.2-.7-.3-.5-.9-.7-2.3,0-3.1.3-.5,1-.2,1.2.5v.5h.7c.7.2,1.4,1,1,1.7-.2.7-.9,1.2-1.6,1l-.5-.3ZM301,198.5c.5.7.3,1.6,0,2.1-.2.5-.5,1.7-1.2,1.4-.9-.5.2-4.9,1.2-3.5ZM312.7,243.7c-.3-.5-.3-1,.3-1.2.3-.3,1.2-.3,1.6-.3.9.2,1.2,1.2,1,1.9-.7,1-.7,3.1-2.3,3.1-1.6-.3-.5-2.4-.7-3.5ZM322.6,253.5c-.2-.3-.5-.3-.7-.7-.3-.9-.2-1.9.3-2.4.3-1,1.7-.5,2.1.3.5,1,.9,2.3.5,3.5,0,.7-.5,1.4-1.2,1.4-.9-.3-.9-1.4-1-2.1ZM329.2,245.8c-.3,0-.7.2-.9-.2-.5-.5-.3-1.6.3-1.7.2-.2.5-.2.7-.2.5,0,.9,0,1.2.2.5.7,0,1.9-.7,2.1-.2.2-.5,0-.7-.2ZM330.1,244.6h-.7q0,.2-.2.2c.2.2.3.2.7.2,0,0,.2-.2.2-.3ZM336,235.7c1-.3.7-1.7.7-2.6-.3-.2-.9-.3-1.2,0s-1,.7-1.2,1.4c.3.7.9,1.2,1.6,1.2h.2ZM365.4,234.7c0-.3,0-.7-.3-.9-.2-.2-.7-.2-.9.2,0,.3-.3.5-.7.9-.5.3-1,.5-1.4,1.2.3.9,2.8-.2,3.3-1.4ZM365.1,260.9c.7-1.2,1.9.7,2.1,1.4.2.7-.2,1.4-.7,1.9l-1,.5c-.3.3-1,.5-1.6.2-1.4-.9-.3-3.7,1.2-4ZM373.4,246.2c.2-1-.3-1.9-.5-3-.2-.2-.5.2-.9,0,0,.7-.3,1.4-.3,2.1.2.9.3,1.9,1,2.3.5,0,.5-.9.7-1.4ZM376.9,122.2c.2-.9,0-1.6.2-2.3.3-.7,1-1.2,1.4-1.9.7-1.2,0-2.3-.5-3.1-.3-.7-.3-1.6-.5-2.3-.3-.9-1.2-.5-1.7-.2,0,.2-.2.3-.3.2v.2h-.2c-.2.7-.5,1.4-.7,1.9.2.5.7.9.7,1.2,1.4,2.4-1.4,6.4,1.4,7.7.3-.3.3-1,.3-1.4ZM385.6,255.7c-.3-.7-.3-1.4-.7-2.1-.2-.2-.5-.3-.7-.7-.2-.5-.2-1-.2-1.6.3-1,1.9-.9,2.4,0,.2.2.3.5.5.9.3.3.9.9,1,1.4.2.9-.5,1.6-1,2.3-.3.5-1.2.3-1.4-.2Z"/>
  <path class="cls-1" d="M407.7,266.3c-1.6-2.8.9-5.7.3-8.7-.2-1.2-.9-2.4-.9-3.7.2-1,.7-2.1.9-3.1.2-1.2-.2-2.6-.3-3.8,0-.9.3-1.6.3-2.4s-.2-.2-.2-.3c-.5-.7-.9-1.4-1-2.3,0-2.1,0-4,.3-6.1.2-1,.7-2.1.9-3.1q-.2,0-.2-.2c-.9-3,0-6.3.2-9.2.3-2.4-1.2-4.7-.7-7.1.7-2.6-.5-5.4.2-8.2.2-.9.7-1.9.5-2.8,0-.7-.5-1.2-.5-1.9-.2-.9.3-1.7.2-2.6-.2-1.6-1.4-2.8-1-4.4,0-1,.3-1.9.9-2.6.3-.7,1.7-2.8.7-3.3-3.8-1.2-.5-5.4-.7-7.8-.2-1.7-.9-3.3-1.4-4.9-.5-1.7-.5-3.5-.7-5.2-.3-3-.2-5.9.2-8.9.2-1.6.7-3,.5-4.5-.2-1.2-1.2-1.9-1.6-3.1-.5-3,.3-6.3.9-9.1.2-2.6-1.4-5-1-7.5.2-1.4.7-2.8,1.9-3.1.7-.7.5-1.9.7-2.8.2-3.5-3.8-5.7-3.7-9.2.3-2.1.5-4.2.9-6.3.5-1.9.5-2.4-.5-4.2-.9-1.6.2-3.5.2-5.2s-.7-1.9-1-3c-.5-1.7-.2-3.8,1-5.2,1-.9,2.6-.2,4-.3.7,0,1.4-.3,2.1-.5,2.6-.5,5,.9,7.5.3,1-.2,1.9-.7,3-.5,1,.2,2.1.7,3,1,1,.2,2.1.2,3.1.2,1.6-.2,3-.7,4.5-.9,1.2,0,2.3.7,3.5,1,.9.2,1.7,0,2.6,0s2.3,0,3.3.5c.5.3.7.7,1,1,.5-.2,1-.7,1.4-.9,1-1.2,2.6-2.4,4.4-1.9,1.6.3,3.3.2,4.9.7h.2c.7.2,1.4.2,2.1,0,1,0,1.9-.2,3-.3,1.2-.2,2.3.2,3.5.5,1.2.3,2.6.5,4,.5s2.6.7,3.7,1.4c1,.7,2.1,1.4,3.1,2.3.9.3,1.7.3,2.6.7,1.6.9,3.3,1.4,4.7,2.4.5.3.9.7,1.2,1.2.2.3.3,1,.5,1.6.3,1-.5,1.7-1.2,2.4-.3.9-1.2,1-2.1,1.4-.5.3-1.2.9-1.4,1.4,1.2,0,2.6-.5,3.5-1.2,1.2-1,2.3-4.5,4.2-2.6.3.7.9,1.6,1,2.3.3,1.2.3,2.8,1.4,3.7.7.5,1.2,1.2,1.7,1.9.5.5,1.4.7,1.7,1.4.3.3.3,1,.5,1.6.7.9,1,1.9,1.6,3,.3.9.5,1.7.3,2.6-.3.7-.9,1.6-.7,2.4,0,.9.3,1.9.5,3,0,.7-.2,1.6.2,2.3.3.9,1,1.7.9,2.8,0,1.7-.2,3.3-.5,5,.3,2.4-.9,5-2.6,6.8-.5.3-.9.7-1,1.4-.2.3,0,.7-.2,1,0,.5,0,1.2-.2,1.4-.7,1.2-1.7,2.3-3.1,2.6-1,.5-2.4.5-3.7,1.2-.5.7-.5,1.6-1,2.4-.7,1.7-2.8,1.9-4.5,2.3-1.2.3-2.4.9-3.7,1-.9.2-1.7.3-2.3-.5-.7.2-.5.9-.3,1.4.3.5,1,1,1.4,1.4.9.5,1.9.2,2.8.7.9.7,1.7,1.4,3,1.7,2.1.3,3.3.5,4.5,2.3.5.5,1,.5,1.7.5,3.5,0,4,1.6,6.1,4l1.6,1.7.9.3c1.9,1.6,1.7,4.5,2.1,6.8.2,1.6,1.2,3,1.7,4.4,1.4,3,0,6.3-.5,9.2-.3,1.6.3,3.1.2,4.7l-.5,5.9c0,1,0,1.9-.2,3-1.2,2.4-3.1,4.2-4.9,6.3-1,1.2-2.8,1.9-3.7,3.3-1,1.9-1,4-1.9,5.7-.9,1.4-2.1,2.3-3.1,3.3-1,1.2-.2,3-.5,4.5-.3,1.7-1.2,3.3-1.9,4.9-.5,2.1.7,4.9-1.2,6.4-.5.5-1.4-.2-1.7-.9-.5-.9-.7-1.9-.5-3.1,0-.9.5-1.7.3-2.6-.3-.5-.9-.5-1.2-1-.7-.9-1-1.9-1.2-3-.3-.7.2-1.7-.5-2.3-.5-.3-1.2-.3-1.7-.2-.9.3-1.7.5-2.6.9-.5.3-1,.9-1.2,1.4-.7,1-1.2,2.1-1,3.5.2,1-.5,1.9-.3,3,.5.9,1.2,1.7,1,2.8,0,1.7-1,4-3.1,3.1-1.2-.5-1.4-2.1-2.1-3.1-.5-1-1.2-2.1-1.4-3.3-.2-1-.3-2.1-.9-2.8-.7,0-1,.5-1.7.7-1,.2-1.4-1.7-2.4-1.6q-.2.2-.2.3l-.5,2.1c-.3,1-.9,1.7-1.6,2.4-.3.5-.5,1-.5,1.6l.5,3.7c.3,2.3.3,4.5-.3,6.6-.3,1.4-.7,4.9-2.3,5.2-.7-.2-.9-1-.9-1.7-.2-.9.2-1.7,0-2.4-.2-.7-.5-1.2-.7-1.7-.3-1.9-.2-3.7-.3-5.6-.3-.9-.7-1.6-.9-2.4-.3-1.9.7-4.2-.3-6.1-.3,1-.9,1.9-1.4,2.8-.3,1-.3,2.3-.9,3.3-.7,1.4-1,3.1-2.4,4-1,.3-1.4-.9-1.2-1.7-1.2-.7.2-1.7,0-2.8-.5-.7-1-1.6-1-2.6s-.2-2.8-1.2-3.8c-.5-.5-1.2-.9-1.6-1.6-.5-1.2,1.2-3-1.2-3.1-2.1.7-3.3,2.6-5,3.8-.7.9-1.7,1.7-3,1.4-.2,1.2.2,2.3.5,3.5.7,2.4-1.7,4-3.3,5.4-.7.7-.9,1.7-.9,2.8.2,1.2-.5,2.4-1,3.7-.2.9.2,1.7.2,2.6.3,1.6.3,3,.2,4.5-.2,1-.3,2.4-1.2,3.1-1,.3-1.2-1-1.4-1.7,0-1.2.2-2.3,0-3.5-.2-.9-.5-1.6-.3-2.4,0-.9.5-1.7.7-2.6-.2-.9-.9-1.6-.9-2.4-.2-1.6.3-3.1-.3-4.5s-.3-3.3-1.6-2.4c-.3.3-.9.7-1.6.7s-.5.2-.7.5c-.2.9-.7,5-2.1,3.8-1.6-1-2.1-2.6-3.3-4-.2,1.6-.7,3,.2,4.4,1.2,3.8,2.3,5.6.3,9.4-.3,1.2.3,2.6.2,4,0,1.4-.3,3.7-2.1,4-.7,0-1.2-.9-1.6-1.4ZM429.8,256.4c-.3-1.4.3-3,.9-4.4.3-.9.9-1.4,1-2.1.2-.9.2-1.6.2-2.4-.3-.3,0-1,.5-1,.9.3,1.6,1.2,1.7,2.3.3.7.2,1.4.3,2.3.5,1,1.6,1.7,1.9,3,.5,2.1-.5,5.6-3.1,5.4-1.7-.2-3.1-1.2-3.5-3ZM444.5,152.3c.3-.2.5-.2.7-.2.5-.2,1-.2,1.6-.2,1.2-.3,2.1-1.4,3.3-1.9.9-.2,1.6-.3,2.3-.7,1.2-2.1,2.8-2.4,5-2.4.3-.3.5-.9.7-1.2.3-1.2,0-2.3-.3-3.3-.5-1-1-2.3-.5-3.5.2-.5.5-1.2.5-1.9s0-1.2-.5-1.6c-1.6.2-2.6-1-2.6-2.6s.2-.7-.2-.9c-.3-.5-1-.7-1.6-.7-.2-.2-.5.2-.5.3,0,1,.3,2.4-.9,3.1-1.2.3-1.9-1.2-2.1-2.3-.3-1.2.5-2.3-.2-3.5h-.2c-.7.3-1,0-1.6-.3l-.5.3c-.2.9-.2,1.7,0,2.6.2.9.7,1.4.9,2.3,0,.7-.3,1.4-.5,2.1,0,.9.9,1.6,1,2.6.2,1.9-.3,5-2.8,4.7-1.6,0-2.1-1.4-1.9-2.6.2-1.4.2-2.6.3-3.8.2-1.4.5-2.8.2-4-.3-.5-1-.9-1.2-1.6s.2-1.2.2-1.9c-.5-.9-1.7-.5-2.4-.3,0,.5-.3.5-.5.9l-.5,2.6c.2.9.3,1.9.3,3-.2,1.2-.7,2.3-1.9,2.8-.2.3-.2.9.3.7s1.4-1,1.9-.2c.3.9-.3,1.9-.3,2.8.9,2.8.3,5.7-1.2,8.2-.3.7-.7,1.2-1,1.7-.2.2-.2.3-.2.3.2.3.3.5.5.7.3.2.9.2,1.2.2,1.7-.2,3.7-1.4,5.2-.3ZM449.8,204.2c1.4-.3,3-.7,4-1.6.3-.3.7-.3.7-.7-.2-1.6-.7-4,1.2-4.7,1.2-.2,2.4-.3,3.3-1.4.5-.5,1.2-1,1.2-1.7-.3-1.2-.5-2.6-.5-3.8s.3-1.4.2-2.3c0-1.2-.7-1.2-1.9-1.2s-.5-.3-.7-.7c-.3-.5-.7-1-.7-1.7-.2-1-.3-2.1-.9-3-.2-.2-.3-.3-.7-.3s-.2.2-.5.3c-.3,0-1.2,0-.9.7.3.9.9,2.8-.2,3.3-.5.2-.9-.5-1.2-.9-.9-.9-1.6-1.9-2.1-3s-1.9-1.6-2.4-.5c-.2.9-.7,1.6-1.6,2.1-1.2,1.4.3,3.1.7,4.4.2.9-.2,1.6-.7,2.1-1,1.7,0,3.5.7,5,.3.9.5,1.7.3,2.8-.2.9-.9,1.9-1.9,1.9-2.3-.3-2.6-4.7-2.3-6.4,0-1.4-1.4-2.6-1.2-4.2,0-1.4,0-2.8.2-4.2.3-1.4.7-3,.5-4.4,0-.3-.3-.5-.5-.5s-.5,0-.7.2c-.5,0-1,.2-1.6.3,0,0-.2,0-.2-.2-1.2,2.1-.2,4.5.2,6.6.5,1.4.5,2.8.5,4.2.3,1.4,0,2.8-.2,4.2v3.5c-.2,1.2-.2,2.3,0,3.5,0,1-.2,2.3.3,3.1,1.4.3,2.8.9,4.4.7,1.7-.2,3.3-1,5-1.6ZM442.2,259.7c-.2-1-1-1.6-1.4-2.3-.3-1.2-.3-2.6.3-3.8-.2-.9,1.4-1,2.1-.7,2.1.5,2.6,9.7,0,9.6-.9-.7-.7-1.9-1-2.8ZM490.6,190.1c.3-.3.3-.7.5-1.2-.5-.2-.9-.3-.9-.9h-.7c0,.2-.2.2-.2.2.3.7.2,1.4,0,2.3.2.3.2.9.3,1.2.7-.3.5-1,.9-1.6Z"/>
  <path class="cls-1" d="M550.5,269.1c-.5-.2-.9-.5-1.4-.9-.3.7-.9,1.6-1.7,1-.7-.9-.3-2.1.2-3,.2-.7.2-1.6.5-2.1.2-.7.5-1.2.9-1.7.5-.9,1-1.7,1.2-2.6,0-.5.3-1.6.7-2.4,0-1,.3-2.3.7-3.3l-.5-3c-1.2-2.8-2.8-3.8-2.1-7v-.5c-.3-1.4,0-3-.7-4.2-.5,0-.9.2-1.2.5,0,1-.3,1.9-.9,2.6v.2c-.2.9-.9,1.6-1.2,2.3-.3.9-.5,1.9-.3,3.3,0,1,.7,1.9,1,3,.2,1,0,1.9-.2,2.8-.3,1-1.2,1.7-2.1,2.3-.2.2-.5.5-.7.9.2,1,.2,2.3.2,3.3s-.2,2.3-.3,3.3c0,.7-.7,3.3-1.6,3.3s-.2-.2-.3-.2c-1.7-2.1-1.4-5.2-1.2-7.8,0-1.9.7-4,0-5.9-.2-.5-.5-1-1-1.6-.5-.5-1.2-.9-1.4-1.7-.2-1.2.5-2.1.9-3.1.2-1.7.9-3.3,1.4-5,.2-1.4.5-2.8.7-4,.3-1.2,0-2.3.2-3.3.2-1.4.5-2.8.2-4-2.3-3-.9-4.4.3-7.1-1-1.6-1-3.8-.2-5.4.2-.2.3-.3.3-.7.2-1.6-.9-3-1-4.5-.2-2.3.3-4.5.2-7-.3-2.3-.2-4.7-.3-7-.2-2.6-.5-5.2-.5-7.7s.2-3.1.7-4.7c.5-1.4,1.2-3,1-4.5-.2-1.6-.9-3.1-1-4.7,0-1.7.5-3.5.5-5.2-.3-1.7-1.2-3.7-.5-5.6.9-1.9,2.1-2.4,3.1-.3,1.4,1.9,1.2,4.2,1.4,6.3,0,1.2.5,2.3,1.2,3.1.9-1.9,0-4-.3-5.9-.2-1.4-.3-2.8-1-4-.7-1.2-1.9-1.9-2.8-2.8-.2-.5-.2-1.2-.7-1.7-.9-1.6-.2-3.5-.3-5.2-.2-1-.3-1.9-.3-3-.2-1.6.2-3.1,0-4.7-.7-1.9-.2-4-.2-6.1-.2-1.4-.7-5.2,1.4-5.4.7.2,1,.9,1.6,1.2.5.5,1.4.5,1.9.5-.3-1.4-1-2.4-2.1-3.3-.7-.5-1.6-.7-1.9-1.4-.5-.7-.2-1.7-.2-2.4-.3-2.4.2-4.5.3-6.8,0-1-.5-1.7-.7-2.6-.3-1.6-.2-3.1-.5-4.5,0-.9,0-1.6.3-2.3.3-.9,1-1.9.5-3-.7-1-1.2-2.4-.7-3.7.2-.7.7-1.6.5-2.4-.2-1-.9-1.7-1.4-2.6-.3-1.4,0-3,1.7-2.8.5,0,.9.2,1.2.3,1.4.3,2.8.3,4.4.3.7.2,1.4-.2,1.9-.3,1-.3,2.6.2,2.8,1.4.2,2.3.3,4.5,1.4,6.6.9-1.2.5-2.8.2-4.2-.3-.9-1-2.3.2-3.1.7-.5,1.6-.9,2.4-.7.5.2,1,.2,1.6,0h.9c.5.2,1,0,1.6-.2.7-.2,1.4-.3,1.9,0,1,.5,2.3,1.2,3,2.1.2.2.2.3.5.5,1,.3,2.4.2,3.5-.5.9-.9,1.9-1.9,3.3-2.1.9,0,1.7,0,2.6.3.3.2.5.2.7.2.5-.2,1.2-.2,1.7,0,.5.5.3,1.2.5,1.9,0,1.4.2,2.6,0,4-.2,1.2-.7,2.4-.9,3.7-.3,1.6-.2,3.1-.5,4.7-.5,1.9-.3,3.8.2,5.6.2,1.6.9,3,1,4.4-.2,1.7-.2,3.5-.2,5-.5,2.1-1.2,4-1.2,6.1s1.4,1.9,1.6,3.1c0,1.4-.3,3.1-.5,4.7-.2,1,0,2.3,0,3.3,2.8.3,1.7,1,3,3,.3.3.9.9,1.4.5.7-.7,1-1.4,1.6-2.1.7-.7,1.7-1.2,2.6-.9h.9c.2,0,.3-.2.7,0,.2-.5,1.2-.2,1.6.2,1,.5,1.9,2.6,3,1,1.2-1.4.9-1.9,2.8-1.6.3-1-.2-1.9-.3-3,0-1.9.5-3.8,1.7-5.2-1-1.2-2.1-2.8-1.2-4.4.5-1,1-2.8,2.3-2.8.3-1.9-1.6-3-2.1-4.5-.5-1-.2-2.4-.3-3.5-.2-1.6-.3-3.3,0-5,.2-1.2.7-2.4,1.2-3.7,0-.3.7-.9.5-1.4-.5-.9-1.2-1.4-1.7-2.3-.7-1-.5-2.3-.2-3.5.3-.7.9-1.4,1-2.1,0-.2-.2-.2-.2-.3-.3-.7-.7-1.2-.9-2.1-.7-1.9.5-4,2.8-3.8,1.4.3,2.8.2,4.2,0,1,0,2.1-.2,3.1,0,1.2.3,2.4,1,3.8.7,2.8-.3,5.7-.7,8.5-.2.7.2,1.2.7,2.1.9.3,0,.7-.2,1-.2,1-.2,2.1-.2,3.1-.7.5-.3,1-.7,1.6-.5,1.4.3,2.4,0,3.8-.2,1.2-.2,2.8.7,2.4,2.1-.3,2.8-.9,5.6-.7,8.5l.5.5c.3.5.3,1,.5,1.7.3.9-.2,1.9-.2,2.8-.2.7.2,1.4.2,2.1s-.2,1.4.2,2.1c.3.7.7,1.6.9,2.3,1,1.9-.5,2.8-1,4.5,0,1.4.5,2.8-.2,4.2s-1.7,1.7-1.9,3c-.2,1.4.2,2.8.7,4,.2,1,.5,1.9,1,2.8.7.3.7,1.4.7,2.1.3,1.4,0,3.1-.2,4.5-.2,2.8.3,5.7-.7,8.5-.7,1.6.9,2.8.9,4.4.2,1.9-1.2,3.5-1.9,5,0,.2,0,.5-.2.9-.9,1.4-1.2,3-.7,4.5l1.2,2.3,1,1.4c.5,1.9-.7,3.8-.7,5.7s.3,3.1.3,4.7c0,3.7.3,7.1.7,10.6.5,1.9.2,3.8-.3,5.7-.3,2.6-1,5-1.4,7.7,0,1.6-.5,3.1-.7,4.7-.2,2.1,1.4,3.7,2.3,5.2.5,1.6.5,3.3.5,4.9.2,2.1-.3,4.2-.5,6.3,0,1.2,0,2.6-.2,4,0,.7-.2,1.4,0,1.9l.5,1.2c.3,1,.2,2.4-.9,3.1,0,.5.3,1,.3,1.6.2,1.2.3,2.6-.5,3.7-.5.5-1,.3-1.2-.3,0-.9-.2-1.7-.7-2.4-.2-.3-.5-.9-.9-1.2-1-.9-1-2.4-2.1-3.1.9,2.8,1.9,3.7.3,6.6-.2.5,0,1,.2,1.4.5,2.3,4,3.3,3.3,5.9-.5,1.2-.5,1.9-.2,2.4.3.3.7.7,1,.9.2,0,.3.2.5.3,1,1,.9,2.8,1.7,4,.9.9,1.9,1.7,2.4,3.1.2.9-.5,1.2-1.2,1-1.6-.2-3.5-.2-4.2-1.7-.3-.9-.3-1.9-.7-2.8-.2-.9-.7-1.6-1.2-2.1-.3-.5-.5-.9-.7-1.4-.2-.5-.5-1.2-.9-1.7-2.1-1.6-1.6-3-2.1-5.4-.7-2.6-3.5-.5-4.4-2.4-.3-.9,0-1.9,0-3-.2-.9-.3-1.7-.7-2.4-.7-1-1.7-2.1-2.4-3.3-.5-1.6-1.4-2.3-3.1-1.6,0,.2-.2.2-.3.3v.2c0,.2-.2.5-.2.5-.5,1-1.6,1.7-2.6,1.9-.7.3-1.6.2-2.1.7-.2,1,.3,1.9.7,2.8s.5,1.9.2,2.8l-.5.7v.3c.2.9.9,1,1.6,1.2.5,0,1,.2,1.6.3,1.4.2,2.8,1,3.3,2.3,0,.2.2.3.2.5.3.5.5,1,.5,1.7v.2c.3,1,.5,3.1-.7,3.1-.3-.2-.5-.5-.7-.7-.2-.2-.5-.3-.9-.5,0,.7.2,1.6-.3,2.3-.2.3-.7,0-1-.3-.5-.5-1-1.4-1.4-2.1,0-.7-.3-1.4-.9-1.7h-1v-.2c-.5.2-.9.3-1.4.3s0,.2,0,.2c.7,2.6,1.6,4.9-1.2,6.3-1,.9-2.3,2.3-3.7,1.9-.9-.3-.9-1.6-.3-2.3.5-.9,2.1-1,2.3-2.1,0-.5-.3-1-.5-1.4-.9-2.1.2-4.4,0-6.4-.9-2.1-1.4-2.3-.5-4.5.5-1.2-.9-1.9-1.4-3-.7-1.6,0-3.5-1-4.9-.7.3-.7,1.2-1.2,1.9-.5.7-1.2,1-1.9,1.6-.3.9.2,1.9-.5,2.8-.3.5-.9,1-1.6,1.4-.3.2-1,.3-.9.9.5.9.7,1.9,1.2,2.6.5,1.4.2,3,0,4.4-.2.9,0,2.1-.7,2.8-.9,1-1.6,2.1-2.6,2.8-1.4,1-2.6.7-2.1-1.4.5-1.6,1.7-2.8,2.1-4.5.7-2.3-1-3.1-1.7-5-.2-.5,0-1.2.3-1.7.3-1,.9-2.1,1-3.1.7-3,3-5.4,2.8-8.5.2-.5.3-1.2.3-1.7-.2-1-.5-2.1-.7-3.3-.2-.9-.2-1.9-.3-2.8-.3-.5-.9-1-.9-1.9s.2-1,.3-1.6c.3-1,.3-2.3.7-3.3,0-1-.2-2.3-.2-3.3-.3-1-.3-2.1-1-2.8-.7-1.6,1-2.8,1.6-4,0-.7-.3-1.4-.3-2.1-.3-2.3-.7-4.7-.2-7.1.3-1-.5-2.3.3-3.3,1.2-1.2,1.4-3.1,1.6-4.9-.2-2.4-4.4-2.6-3.5-5.4.2-.7,2.8-5.2,1-4.2-.3.3-.9,1-1.4.9-.7,0-1.4-.5-1.6-1-.7-.5-1.4-.2-1.9.3-.5.7-.9,1.6-1.6,2.3-.3.3-1,.7-1.2,1.4,0,.3-.2.7-.3,1.2,0,.3.2.9,0,1.2,0,.7-.5,1.4-.5,2.1,0,1.4,0,2.8-.2,4.2-.2,1.2.2,2.6-.5,3.7-1.4,1.2-2.4-3-2.4-3.8.2-1.9.5-3.8.3-5.6-.2-1-.9-1.7-.9-2.6.2-1,.7-1.9.5-2.8,0-.7-.3-1.6-.7-2.1,0-.2,0-.3-.2-.3-1.4,0-3,.5-3.5,1.7-.2.7,0,1.2,0,1.9,0,1.9-2.1,3.1-2.1,5-.2,1.2.7,2.4.9,3.7.3,2.1-.3,4-.3,6.1.2,1,.5,2.1.5,3.3.2,1.4,0,2.8-.2,4.2,0,1.2,0,2.4-.5,3.5s-1.4,2.8-1.4,4.2c.2,1.4.3,3,1,4.4,1,1.9,1.7,4,1.6,6.3,0,2.3-.9,4.4-.9,6.4s.5,1.9,1,2.8c.5,1.6.3,3.1-.2,4.5-.2,1.2,0,2.4-.2,3.8-.2.9-.2,4.7-1.7,3.5-1-1-1.9-2.6-1.9-4,.2-1.9.9-4.2-.9-5.6-1.2,1-1.2,4.9-3.5,4.5-.3,1.2.2,2.4.9,3.5.3.7.5,1.6.5,2.4.2.7,0,1.2,0,1.9.3.7.7,1.6,1.2,2.1.5.2,1,.2,1.6.3,1.4.5,2.1,1.9,2.6,3.1.3.9,1.4,3.7.3,4.4-1.4.3-1.9-.9-2.6-2.1s-1.4-2.4-3.5-2.1c.5,1.2,1.9,2.4,1.6,3.8-.2.3-.3.5-.5.5-.5.2-.9-.3-1-.5-.3-.7-.5-1.4-1-2.1-.7-1.2-1.9-1.7-2.8-2.8-.5-1.2-.2-2.8,0-4.2.2-3.5-1.7-4.7-4.7-6.1-1.2-1,.5-2.6.7-3.8.5-1,0-4.5-1.7-3-.2.3.2,1,.2,1.4,0,1-.7,1.9-1.4,2.4-.3.5-1,.7-1.6.7-.2.2-.3,0-.5,0-.3,0-.7,0-.9.2-.3.7-.5,1.4-1,2.1-.2.3-.5.3-.7.7-.3,1,0,2.1.3,3.1.7,1.6,1.2,3.3.9,5-.2,1.2-.5,3.1-1,4.7,0,1-.2,2.3-.3,3.1-.2.5-.5,1-.7,1.4-.3.9-.7,1.7-1.2,2.4-.3,1.6,1.4,2.8,1.6,4.4.2,1-1,1.9-2.1,1.6-.3,0-.5-.3-.9-.5ZM552.9,239.4c.2,0,.5-.2.7-.3,0-.2.2-.3.2-.7.2-.2.2-.3.2-.5v-.2s.2,0,.2-.2c.2-.2.2-.5,0-.7s-.3-.2-.5-.2h-.2c-.2.2-.3.3-.5.7l-.3.5v.3c0,.2-.2.2-.2.3v.3c0,.2.2.3.3.5h.2ZM559.3,255.6c-.9-.9-.9-2.4-.7-3.7,0-.3.3-1.4.7-2.4.2-.5.5-1,.9-1.6,0-.9.9-1.6,1.4-.5.5,1.4.9,5.7-.2,7.7-.3.7-.9,1.2-1.6.9h-.2c0-.2-.2-.2-.3-.3ZM571.3,188.5c.2-.2.2-.3.2-.5.2-.3.2-.7.3-1.2v-.7c0-.2,0-.3-.2-.7v-.7c-.2-.3,0-.5-.2-.7,0-.2,0-.3-.2-.5v-.3c0-.2-.3-.3-.7-.3s-.2.2-.3.2c-.2.2-.3.5-.2.7,0,.2-.2.3-.2.3,0,.3.2.7.3.7v1.4l-.3.9c-.2.3-.2.7,0,1,.2.3.3.5.5.7s.2.2.3.2.3-.2.5-.3ZM577.1,250.7c-1.2.3-1.2-4.4,0-4,.9,0,1.2,4,.2,4.2l-.2-.2ZM596.9,254.5c.5-1,1-2.3,1.7-3.3.2-.2.3-.3.3-.5l.3-.3h.3c.9-.7,1.2.7,1,1.6-.2.9-.2,1.9-.5,3-.2.9-2.1,3-3,2.3h-.2c-1-.3-.5-1.9-.2-2.6ZM602.9,264.6c-.7-.7-.3-2.4.9-2.4s.3,0,.5.2c.3.2.7.5.7.9.3.7.2,2.6-.9,1.9v.2c-.3-.3-.9-.3-1.2-.7ZM608.6,251.4c.2,0,.3-.2.5-.2.2-.2.5-.2.7-.5.2-.2,0-.7-.3-.7h-.3v-.2h-.2c0-.2-.2-.2-.3-.2,0-.2-.2-.2-.2-.2h-.7c-.2,0-.5.3-.5.5q-.2.2-.2.3c-.2.2.2.5.3.5s.2.2.2.2h.2s0,.2.2.2c.2.2.3.2.5.2h.2ZM621.7,240.6c.2,0,.3-.2.5-.3.2-.2.3-.7.3-1.2q-.2-.2-.2-.3c-.2-.2-.2-.3-.2-.5v-.2c0-.3,0-.9-.3-1.2h-.3c0-.2-.2-.2-.2-.2h-.7c-.3.2-.5.5-.7.9-.2.2-.2.3-.2.5-.2.2-.2.3-.2.5s.2.3.2.3c0,.2,0,.3.2.3v.5c0,.2.2.3.2.5.2,0,.2.2.2.2.2.2.3.2.3.2.2.2.3.2.5.2s.3,0,.5-.2ZM623.9,122.6c.2,0,.3,0,.3-.2,0,0,.2,0,.2-.2q.2,0,.3-.2t.2-.3v-.5c.2-.2.2-.5.2-.7v-1.6c0-.3-.2-.5-.2-.7-.2-.3-.2-.9-.3-1.2.2-.2.2-.3.2-.5.2-.3,0-.7-.2-1-.2-.2-.5-.3-.7-.7l-.7-.5c-.3-.2-.7-.3-1-.3s-.3-.2-.5-.2-.3-.2-.5-.2-.3,0-.5.2c-.2.3-.2.5-.2.7.2.3.3.7.5.9.3.3.7.7,1.2,1l.3.3c0,.2.2.2.2.3v.9c0,.3-.2.9-.2,1.4-.2.5-.2,1,0,1.4,0,.5.3,1,.7,1.4.2.2.3.5.5.5h.2Z"/>
  <path class="cls-1" d="M640.6,278.2c-.7-1.9,0-4.2-1-5.9-.5-.9-1-1.7-.9-2.8s0-2.3.5-3.3c.3-.5.7-1,1.2-1.6.3-1,.9-2.1,1.6-3,.3-.5,1-.9,1.2-1.2.2-1.6-.7-2.8-1-4.4-.2-1,.3-2.3,1.4-3,.7-.3,1.6-.9,1.9-1.6.3-.7.2-1.6.2-2.3,0-1.4,1.2-2.4,1.6-3.7v-.5c-.7-1-.5-2.3.2-3.3.9-1,2.1-1.9,2.4-3.1.3-1.2-.9-3.1-2.1-3.5-.7.7-1.6,1.2-2.1,2.1-.2.5-.2,1.2-.5,1.7-.3.7-1,1.4-1.6,2.1-.3.7-.3,1.6-.7,2.3-.3,1-1.4,1.7-2.1,2.6-.5.7-.5,1.4-1,2.1-.5,1.2-1.6,2.1-2.6,2.6-.5.2-1.2.3-1.6.9-.5.9-.7,1.7-1,2.6-.3.7-.7,1.4-1,1.9-.7.7-1.9.7-2.3-.3-.2-2.6,1.4-5.2,2.8-7.5.7-1.2,2.6-1.6,3-3,.5-1.4,1-2.8.9-4.4-.2-1.4,0-2.4,1-3.3.3-1.6-.7-3.1-.3-4.9.2-1,.9-1.7,1.4-2.6.3-.5.7-1.2,1.2-1.7.3-.5,1-.7,1.6-1,.5-.2.9-.7,1.2-1.2.3-.5.7-.9,1.4-1,.2-.2.5-.2.7-.3.2-.3.3-.9.3-1.2.3-1,1.2-2.8,2.4-1.9.2.2.3.5.7.5.5.2,1.2,0,1.4-.5.2-1.7-2.3-4-3.7-2.4-.3.7-.5,1.6-1,2.1-.3.5-1,.7-1.6,1-.3.2-.7.7-1,1-.7.5-1.6.2-1.7-.7-.3-1.2,0-2.4,0-3.7.2-1.6.3-3.3,1-4.7.3-1,1.4-1.9,1.4-3-.5-2.1.3-4,1-5.9.5-2.1.5-4.4,1.6-6.3.3-1,.9-2.3,1-3.3-.2-1.6-.2-3.1.9-4.2.2-.2.2-.3.2-.3v-.2c.3-.7.5-1.4.7-1.9.2-1.4-.2-2.8.3-4,.3-1,.5-2.3,1.6-2.6.5-.2.7.5.9.9.5,1.4,1.4,2.4,2.3,3.7,1.4,3-.5,6.4.5,9.6.2.3.7,1.2,1.2.7.2-1.4-.5-2.8,0-4.2.2-.5.7-.9,1-.5.3.2.7.7.9,1,.5.9,1.2,1.7,1.9,2.4,0,0,.2.2.2,0v-.2c0-1.7-.2-3.3-1.2-4.7-.5-1.2-.3-2.6-1-3.7-.3-.9-1.4-1.4-2.1-2.3-.3-.5-.5-1.2-1-1.9-.9-.9-1.7-1.7-1.9-3.1-.2-1.6.3-3.1,1.2-4.4.2-.7.7-1,.5-1.7-.3-.9-1.2-1.4-1-2.4.3-1.6,1.2-3.3,1.2-5s-.2-5.2,1.4-7.3c.7-.7,1.2-1.6,1.2-2.4.5-4-.9-5.7,3.3-8.2.3-.5.5-1.2.7-1.9-.2-1-.9-1.9-.9-3-.2-1.2.2-2.3.3-3.5,0-.9,0-1.9.3-2.8.3-1.7,1.6-3.1,1.7-4.7,0-1.4-.3-5.4,1.6-5.6,1,.3.7,1.9,1.2,2.8.5.7,1.7,1,2.3.2.7-1.9.7-4-.2-5.9-.5-1.2-1.2-2.3-1.2-3.7-.2-1.4.2-3,.2-4.4s-.7-1.9-.2-3c.5-.7.9-1.4,1.6-2.1.5-.3,1-.9,1.2-1.6.7-1.7-1.4-3-.9-4.7.2-.9.5-1.7,1.2-2.3.5-.5,1.2-.9,1.6-1.4.3-.7.3-1.4.5-2.1,0-.5.9-.7,1.4-.5.9.2,1.6.9,2.4,1.2,1.6.2,3.5-.3,4.9.3,1,.7,2.1,1.2,2.8,2.1.3.2.7.5.9.7h.3c.5-.7.9-1.6,1.6-2.1.9-.7,1.9-.9,3-1.4,2.1-.5,4.2,1,5.9,1.9,1.2.7,2.6-.2,4,.2,1,.2,2.1.9,3.1.5,2.1-.7,4.5-2.8,6.8-2.4.5-.2,1.4-.2,1.7.2.7.3,1.6.2,2.3.5.7.2,1.2.7,1.6,1.4.5.5.5,1.2.7,1.7.3.9.7,1.6.7,2.4s-.3,1.4-.3,2.1c0,1.2.2,2.3.5,3.3,1,2.4,2.6,4.5,3.3,7.1.3,2.1-.2,4.4.9,6.3.9,1.2.7,2.8,1,4,.2,1,.5,2.1.7,3.1.2.9,0,1.7.2,2.6.5,1.7,1.2,4,0,5.7-.3.5-1.2.5-1.7,1-.2.2-.2.5,0,.9,0,.2.3.2.5.2,1.2.2,2.4.7,2.6,1.9.2,1,.3,2.3.7,3.3,0,1.6-.7,3-.5,4.4,0,.7.5,1.2,1,1.7.3,0,.5.3.7.7.2,1,.5,2.1.9,3,.9,1.7,2.4,3.3,1.7,5.4.2.2.2.7.2.9-.3,1.2-.7,2.1-1.6,3l-.5.5c-.2,1,0,2.1.7,2.8.3.5.9.9,1.2,1.4.5.9,1,1.9,1.9,2.6,1.6,1.9.7,4.5,1.4,6.8.3,1.6,1,2.8,1.4,4.4.3,1.6.9,3.3,1.4,4.9.5,1.9,0,3.8.3,5.7.2.7.7,1.2,1,1.9.3.5,0,1.2,0,1.9-.3.9-.5,1.7-.7,2.6-1.2,3.1-5,1-3.1,4,.3,1,1.4,1.6,2.4,1.7.9.3,1.7.2,2.6.5,1.4.7,1.7,2.4,2.1,3.8.3,2.3-.2,4.5-.5,6.8-.2,1.6-1.2,3.8,0,5,2.6.9,3.3,2.1,3.7,4.7.2.9.5,1.6.7,2.3.2.9-.2,1.6-.2,2.3s0,.9.2,1.2c1.2,1.2,1,3.3,1.6,4.9.9,1.9,1.9,3.7,2.4,5.7.5,1.6.5,4.5-1.7,3.8-1-.2-2.1-.7-2.3-1.9-.3-1-.2-2.1-.7-3.1-.5-.7-1.2-1-1.4-1.7-.5-1-.3-2.3-1-3.1-.3-.7-1-1-1.4-1.6-.5-.7-.5-1.6-.9-2.3,0,0,0-.2-.2-.2-1.7.3-2.6-2.3-4.4-1-.9.5-.5,1.6-.5,2.4-.2,1-.9,1.9-.7,3.1.5,1.9,2.3,2.6,1.2,4.9-.7,3-.3,5.9,0,8.9.3,1.4.9,2.8.7,4.2.2,1.6-1.6,4.2-3,1.9-1-1.9-.7-4.2-1.4-6.1-.2-.7-.9-1.2-1-1.9-.2-.3,0-.9,0-1.4.2-.2.2-.3.2-.5h-.2q0-.2.2-.3c-.2-.2-.2-.5-.3-.7-.3-.7-1-1.2-1-1.9s.5-1.4.7-2.1c-.2-.3-.3-.7-.3-1-.3-1-.3-2.1-.2-3.1,0-.5,0-1.2-.3-1.6-.3.9-1,1.7-1.4,2.6-.9,2.1.7,4.4-.7,6.3-.3.2-.7.5-.9.9-.2.5.2,1.2,0,1.7,0,1.2-.9,3.5-2.3,2.4-.2-.2-.5-.5-.7-.9-.3.2-.7-.2-.9-.3-.3.9,0,1.7-.3,2.4-.3.9-1.2,1.6-1.6,2.4-.2,1.2,0,2.6-.3,3.8-.5,2.1-1.6,4-2.4,5.9-.7,1.2-2.3,1.4-3,2.4-.9,1-.7,2.4-1.2,3.7-.3.7-.7,1.4-1.4,1.9-.3.3-1,.7-1.6.3-.7-.7-.2-1.9-.3-2.8-.2-1-.5-1.9,0-3,1.2-1.9,2.3-3.8,3.7-5.6.7-.9,1.7-1.7,1.7-3-.2-.7-.2-1.4,0-2.3,0-1.2.9-2.1.9-3.3s-.9-1-1.4-1.6c-.3-.3-.5-.3-1-.3-1-.2-1.2-1.6-1.6-2.4-.2-.2-.2-.3-.3-.3-1,.7-.7,2.1-1.2,3.1,1,1.7.2,5.9-2.3,5.7-.9-.2-1.7-.7-1.7-1.6-.2-1.6.9-2.8,1.2-4,.3-2.3-.2-4.7.9-7,.3-1,1.2-2.4.7-3.7-.5-.7-1-1.4-1.2-2.3-.3-1.4.3-2.6.2-4,0-1.4-.7-2.8-.7-4.2-.2-.7-.2-1.6.2-2.4.2-.5-.2-1-.5-1.4-1.4-1.2-1-2.4-.2-3.8q0-.2-.2-.3c-.5-1-1.6-1.9-1.2-3.1.3-1.2,1.6-.9,2.3-.3.7,0,1.2.3,1.7.7.3.3.7,0,.9-.2.2-.3.5-.5.3-.9-.5,0-1-.3-1.6-.9-.7-.7-1.7-1-2.8-.7-1,.2-1.6-.5-2.1-1.2-.7-.3-1.4,0-2.1-.2-.2,0-.3,0-.3-.2-.7-.2-1.2-.9-1.2-1.6s0-.3-.2-.3c-.5.3-.9.7-1.4.9-.5,0-1-.3-1.2-.9-.3-.5-.2-1.2-.5-1.7-.2-.2-.5-.2-.7-.2l-.3,1.4c-.7,1.2-1.4,2.3-2.1,3.3-.5.9-1.9,1.7-2.8.9-.7-.9-.7-1.9-1.4-2.6s-1.4-.3-2.1-.7c-1-.2-1.4-1.2-2.1-1.9s-1.4-.9-1.9-.3c0,.5.5.7.7,1.2.5,1.7.2,3.7-2.1,3.3-.9-.2-1.4-1.2-2.1-1.2-.9.2-1.2,1.2-1.6,1.9-.3,1.7.2,3.7,0,5.4,0,1.6-.7,3.1-1,4.7,0,1,.2,2.3.5,3.3.3,2.1,0,4.2-.3,6.3l.5,3.7c.2,1.6-.9,3-.9,4.5-.2,1.9.3,3.8.3,5.9-.2,1.2-1,2.4-1.2,3.7,0,1,.2,2.1.2,3.1.3,1.6-1,3-.5,4.5.2,1.4,1,2.6.7,4.2,0,.3-.5.9-1,.7-.9-.9-2.1-1.9-2.4-3.1-.2-.9,0-1.9-.3-3-.2-.9-1-1.6-1.2-2.4-.2-1,.3-1.9.3-2.8,0-1.9.9-3.7,1.2-5.6.2-1.2,0-2.6.7-3.7.2-.7.7-1.2.7-1.9-.2-1-.5-1.9-.5-3s.2-1.9.2-2.8c-.2-.5-.5-1-.7-1.7-.7-1.4,1.2-3.7-.5-4.7-.3-.2-1,0-1.2.2-.3.7-.2,1.6-.5,2.1-.3,1-1.2,1.6-1.9,2.3-.3,1-.3,2.3-1.2,3.3-.5.5-.3,1.2-.3,1.9-.2,1.6-.5,3.1-.3,4.9.7,1.4,1.2,3.1.3,4.7-.2.5-.7,1-.5,1.6.3,1.6.9,3,.9,4.4s-.7,2.8-.3,4.4c0,1.7,1,7.1-1.7,7.3-1.6-.5-1.4-2.6-.9-4,.2-.5.5-.9.5-1.4-.5-1-1.2-2.1-1.6-3.3,0-1.7-.3-3.3-.5-4.9,0-.9.3-1.7.2-2.8-.3-1.2-1-2.3-.5-3.7,0-.9.3-1.7,0-2.4-.3-.5-1-1.2-1.6-.9-.7.5-.7,1.6-1,2.3-.2,1-.9,2.1-1.2,3-.3.7-.7,1.2-1.2,1.6-.7.3-1.6,0-2.3.3-.9.5-1.4,1.6-2.1,2.4-.5.7-1.6,1-2.1.2-.3-1,.3-1.9.7-2.8.5-.9,1-1.6,1.7-2.1.3-.2.7-.3.9-.7.3-.9,1-1.6,1.6-2.3.3-1,.5-2.1,1.2-2.8.3-.7,1.2-1,1.4-1.7-.2-1-2.3-2.1-3.3-1.7-.9.5-1.6,1.6-2.1,2.4-.5.7-1,1.4-1.4,2.1-.3.9-.3,1.6-.7,2.3-.5,1.2-1.6,1.9-1.9,3.1-.5,1.6-.9,3.1-1.4,4.7-.3,1.4-.2,2.8-.7,4.2-.5,1.2-1.6,2.3-2.1,3.3-.2.9-.3,1.7-.7,2.6-.7,1.7-1.9,3.5-1,5.2s1.7,4,.5,5.7c-.3.5-1.2,1.2-1.9.7-.5-.2-.5-.9-.7-1.4ZM675.8,120c.5-.7.2-1.9.5-2.8.3-1,1.2-1.7,1.4-2.6.3-.9-.3-1.6-.9-2.1-.3-.2-.7-.7-1.2-.7q0,.2-.2.2s-.2,0-.3-.2v2.8c0,1.6-1.6,4.9.3,5.6q.2-.2.3-.2ZM698.2,192.9c.3-1.6.9-3.1,1-4.7,0-.3-.2-.5-.3-.7-1-1.7-1.2-2.4-.2-4.2,0-.2-.2-.3-.2-.5-.9-1.4-1.2-3.3-.7-4.9-1.4-1-1-2.4-.7-4,.2-.5.7-.9,1-1,1.7-.5,1.7-1,1-2.6-.3-1.2-1.4-2.3-2.4-3-1.7-1-2.6-2.4-1-4.2-.5-1-.5-2.3-.2-3.3.2-1,.7-1.4,1.7-1.4.3-.2.7-.3.7-.7-.2-1.9-.7-3.8-1.6-5.6-.3-.9-.5-1.9-1.4-2.8s-2.6-1.6-2.1-3.1c0-.5.3-.9.5-1.2-.3-.9-.5-1.7-.2-2.4.2-1,1-1.4,1.7-1.9.5-.7.3-1.7-.2-2.4-.3-.3-.9-.7-1.4-1-1.6-1,0-2.8,0-4s-.3-1-.7-1c-.9,0-1.6.7-1.9,1.4.7,3.7,1.6,5.4-1,8.5v.3c.9,2.4,1.2,5,1.4,7.7.2,1,.7,1.9.9,3,.2,1-.5,2.1-.5,3.1.2,1,.7,3-.7,3.1-1.2,0-1.6-4-1.4-4.9,0-.5,0-1-.2-1.4v-.2h-.3c0,.5,0,1-.2,1.6-.3,1.4-2.1,2.3-1.6,3.8.2.5.9,1,1,1.6.2,1.2-.3,2.4-.7,3.7-.3.9-1.4,1.4-1.6,2.4-.2.7-.3,1.4-.2,1.9.2.5.5,1,.7,1.6.5,1.4.2,3,0,4.4,0,1,0,2.3-.5,3.3-.2.7-.7,1.2-.7,1.9-.2,1.7-.3,3.5-2.1,4.4l-.3.3c-.5,1.4.2,3.1,1,4.4.5.5,1.4.2,1.9.5.7.3.5,1.6,1.4,1.9.2,0,.3-.2.3-.2.9-.5,1.9-.9,2.8-1.4.5-.3.9-.9,1.6-1.2,1-.3,2.4-.5,3.3.3,1.2,1.4,1,3.7,2.8,4.9h.2ZM703.1,200.4c.9-.5,1.6-1,2.3-1.9-2.1-1-2.3-.7-2.3-3.3-.2-.2-.5-.2-.7-.2-1,.2-1.6.9-1.6,1.7.2.3,0,.9.2,1.4v1.7c0,1-1.2,2.3-.3,3.1,0,.2.2.2.3.2,1-.5,1.2-1.9,2.1-2.8ZM716.9,247.2c0-.7.5-1.6.7-2.3.2-1,.7-1.9,1-2.8.2-.7,0-1.2-.3-1.6-.5.3-.5,1.2-1.2,1.6-.5.3-1.4.3-1.9.5-1.2.7-.5,1.9,0,2.8.2.7-.2,1.4,0,2.1.3,1,.9,1.9,1.2,3.1,1-.9.5-2.3.5-3.5ZM730.5,170.8l-1.4-2.1c-.2-.3.2-.7.2-1s.2-1,.7-.7c1-1.4,2.8.2,3.1,1.4.3,1.2,1.4,4-.9,4s-1.4-.9-1.7-1.6Z"/>
  <path class="cls-1" d="M815.2,279.7c-.5-.2-.5-1-.9-1.4-.3-.7-1.4-3.1-1-4.4-.3-2.4-.3-4.9.3-7.1.5-1,.9-2.3,1.2-3.3-.5-1-1.7-1.4-1.7-2.6-.2-2.3,2.6-4.2.3-6.3-.2-.5-.2-1,0-1.6.5-1,.9-2.3.9-3.3s-.3-1.4-.3-2.1.3-1.9-.2-2.6c-.7-.5-1.7-.5-2.4-1-3-2.3,1.7-5,2.1-7.5-.2-.7-.9-.5-1.4-.2-.5.7-1.4,1.7-2.4,1-.5.7-.9,1.4-.9,2.3-.2.9-.7,1.7-1.2,2.4l-1.2,1.6c-.2.9,0,1.7-.2,2.6,0,.9-.5,1.7-1,2.4s-1.2,1.2-1.2,2.1c-.2.7-.2,1.9-.9,2.1-.9.2-.9-1-1.2-1.7-.3-1,.2-2.3.5-3.5.7-2.4,2.1-4.5,2.8-6.8.2-.5.2-.9,0-1.2-.3-.9-1.2-1.7-.7-2.6.7-1.2,2.1-1.9,3-3.1.2-.3.5-.7.3-1-.3-.9-1.2-1.6-1.4-2.4,0-.5,0-1.2.5-1.4.5-.3.9-.9.3-1.4-.5-.5-1-.3-1.7-.5-.3,0-.7,0-.9-.2-.7-.7-.7-1.7-1.2-2.4-.7,0-1.2.2-1.7.2-1.7,0-1.9-1.2-.5-3.5.7-1.7-1.6-3-1.2-4.5.2-.7.5-1.4.5-2.1-.3-1.2-1.6-2.1-1.6-3.3s.3-1.4.5-2.1c-.3-1.4-2.6-1.9-2.6-3.7s.2-3.1-.9-2.4c-.2,0-.2.2-.2.3.2,1.2-.2,2.4-.2,3.5s0,2.4-1.2,3c-1.9.2-.2-3.1-.9-4.2-.7-2.1-1-4.2-1-6.3-.2-1.4.5-2.8.3-4.2-.2-.9-.7-1.6-1-2.4-.2-.9-.3-1.9-.2-3,1.2-3,1.4-1.9-1.2-3.7-1.9-1.6-1-4.4-.7-6.4.2-.9-.2-1.7-1-2.1-.7,0-1.6.5-2.1,1,.2,2.1.2,4-.3,5.9-.2.9-.7,1.7-.7,2.8.3,2.4,1.7,3.1-.2,5.7h-.2c-.2.5-.2.9,0,1.4.3.9.7,1.7.7,2.8.2,1.4-.7,2.8-.2,4,3,1.2,1.6,4.7,1,7-.2,1-1.2,1.9-1,3.1,0,.2,0,.5.2.5.9.7,1,1.6,1,2.6.5,1.9-.3,3.5-1,5.2-.3,1.2-.5,2.4-.2,3.7.5,1,1,1.9,1.2,3,.9,1.9,2.6,3.8,1.6,5.9-.5.9-1.6,1.6-1.4,2.8,0,.2.2.3.5.5,1.6.7,1.4.3,1.7,2.1.5.7,1,1.6,1.9,2.1,1,.3,2.6.9,2.3,2.3-.2,1.2-1.6,2.4-2.6,1.6-.9-1-2.1-1.6-3-2.6-1.9-1.9-4-.9-4.5-4.4-.2-.7-.3-2.8-1.4-2.1-.3.3,0,.9,0,1.4.2.7,0,1.6-.5,2.1-.2.3-.7.7-.9,1-.3,1-.3,1.9-.9,3,0,.5-.2,1.2-.5,1.6s-.9.2-1.2-.2c-.7-1.2-.5-2.8-.3-4,.2-.9.5-1.9.5-2.8-.2-1-1.4-1.2-1.9-1.9-.7-1,0-2.6-.2-3.7,0-.3-.5-.3-.7-.3-.5.2-1,.5-1.2.9-.3.7-.5,1.6-1,2.1-.5.7-1.4,1-1.9,1.7-.2.7.2,1.4.5,1.7s.5.3.9.3c.5,0,1,.2,1.6.5.7.7.5,2.3.2,3.1-.3.5-.7.9-.9,1.6-.2.3-.3.7-.2,1,.3,1,1.2,1.9,1.6,3,1,1.7-.5,3.7-1.2,5.2-.3.9-.5,2.1.2,2.8.3.2.9.2,1,.5.3.2.5.7.9,1,.7,1.2,3.5.7,2.8,2.6-1,1.2-3.1,1-4.4.2-.3-.2-.5-.7-.9-.7-.9.5-2.1,1.4-3.1.7-1.2-1.7.9-3.3.5-5-.3-1.9-.9-3.8-1.9-5.4-.3-.5-1-.7-1.2-1.4-.3-.9.3-2.1-.5-2.6-1.6.2-1.4,2.1-2.3,3-.5.7-1.6,1-1.9,1.7,0,.9.2,1.6.3,2.4.3.7,1,1.2,1.2,1.9.2.7,0,1.2-.3,1.7-.5.9-.3,2.1.2,3,.5.7.7,1.4,1.2,2.1.5.9.5,2.1,0,3-.5.5-1.4.3-1.9,0-1.6-.9-2.1-2.8-2.3-4.4,0-1.7-1.7-2.6-2.4-4-.2-.9.3-1.7.5-2.4,0-1.7-1.7-2.4-2.4-3.8-1-1.7.7-3.3,1.6-4.5.7-1.4,2.3-2.3,2.6-3.8.2-1.2-1.6-1.6-1.9-2.6-.3-.9,0-1.6-.2-2.4-.3-1.2-2.4.7-2.8,1.2,0,1-.2,1.9-1,2.6-.3.2-.7.3-.9.5s-.2.5-.2.9c0,1,.2,2.1-.3,3-.9,1-2.3,1.6-3.1,2.4s-1,1.6-1.6,2.4c-.5.7-1.2,1.4-2.1,1.9-.7.3-1.6.9-1.9,1.6-.5.9-.7,1.9-1.6,2.3-.5.2-1.2,0-1.4-.5-.2-.7.3-1.6.7-2.3.9-1.4,1.7-2.8,2.8-4.2.5-1,1.6-1.7,2.3-2.6.7-2.1-.2-4.5.7-6.6.7-1.6,2.1-2.8,2.6-4.4.2-1.4-.5-2.6-.3-4-.2-1.2.3-2.4.5-3.5-.5-1.4-.2-3,.7-4,.2-.2.2-.5.2-.9s-.2-.9-.5-1.2c-.7-.3-1-1-1-1.9v-1.2l-.3-3c-.3-2.3.9-4.2,2.1-6.1.5-1,1.6-2.4.3-3.5-.5-.5-1.2-.9-1.7-1.2-1.4-1.2-.2-3.3,0-4.9,0-1.4-.5-3-.5-4.4.2-1.9,1-3.7,2.3-5,.5-.5.9-1.2,1.2-1.9.3-1.7-.2-3.5-1.7-4.5-2.8-2.3-1-7.1-1-10.3-.2-1.2-.5-2.4-.9-3.7-.3-1-.2-2.1,0-3.1.2-1,.7-5.2,2.1-3.8.3.5.3,1,.9,1.6.3-1.6-.3-3.1-.9-4.7-.3-1,.3-1.9,1.2-2.6.9-1,2.3-2.1,2.6-3.7-.2-.2-.2-.3-.3-.2-2.3,2.4-4.2,1.9-4.4-1.4l-.5-1.9c-.3-.3-.7-.7-.9-1.2-.5-1.6.7-3.3.7-5s-.3-2.8.3-4,2.1-2.1,3.5-2.1c-.2-1.2,0-2.8-.9-4-.3-.5-1.2-.5-1.7-.7-1.4-.3-1.4-1.6-1.6-2.8l-.2-1.7c-.2-1.2.3-2.3.5-3.5-.2-1.7-.7-3.5-.2-5.2.7-1,1.7-.9,3-.7.5.2,1.2.2,1.6.2,1.2-.2,2.4-.5,3.7-.2,1.2.3,2.4,0,3.8,0s1.4-.2,2.1-.2h.5c.5,0,1.2,0,1.6-.5,0-.3-.7-.7-1-.7-.5,0-1,.2-1.7.3-.9.2-1.9.5-2.8,0-1.6-1.2-3.7-1.7-5.6-1.4-.5.2-1,.3-1.6.3-.7-.2-1.4-.7-1.9-1.2-.9-.7-1.7-1.4-1.6-2.8,0-1.6.2-3.3,0-4.9-.5-1.9-1-4-.5-5.9.2-.7.7-1.6,1.6-1.2,1.2.7,1.2,2.4,1.9,3.3.3,0,1,0,1.2-.3.3-1.4-.2-3.3,2.1-3.3,1.4-.3,2.6.2,4,.7.9-1,2.6-.3,3.7.2,1.2.3,2.1,1.4,3.3,1.4,1-.2,1.6-.9,2.3-1.4,1.7-1.2,4-.9,5.9-.3,1,.2,2.3,0,3.5,0,2.6-.3,6.8-1.7,7.5,1.9.2.7-.3,1.4,0,2.1.3.9,1.7-1.2,2.1-1.6,1-1.9,1.6-3,3.8-2.6.3,0,.7,0,1,.2h.3c.3,0,.7.3,1,.3.5,0,.9,0,1.2.2,1,.5,2.1.5,3.3.7.5,0,1,.3,1.6.7.9.9,1,1.9,1.2,3.1.3.7.2,1.6.9,2.1.7-.9,1.4-2.4,2.8-2.3l3,.3c1.7.2,3.3.3,4.9.3s1.9.2,2.8.3h3.3c1.9,0,2.1,1.7,3.1,3,1.4,1,3.5,1.4,4.7,3.1.3.7.7,1.6,1.2,2.3.5.9,1.9.7,2.8,1.4.7.5,1,1.4,1.2,2.1.3,1.2.7,2.4.9,3.7.2,2.1.2,4.5,1.6,6.3.3.5,1,.9,1.2,1.6l.5,1.6c.2.2.3.3.5.3,1,.5,1.7,1.4,1.7,2.4,0,2.3-.2,4.5.5,6.6l.7,2.3c.3.9.3,1.6,0,2.4l-1,3.1c-.3,1-.9,2.1-.9,3.3.3,1.9,1.2,4.2.2,5.9-.5,1-1.4,1.7-1.4,2.8-.2.3,0,.9.2,1.4.2.9,0,1.7,0,2.6s0,1.4-.2,2.1c-.3.7-1.2,1.4-1.6.3-.2-.3-.2-.9-.3-1.2-.7.3-1,.9-1.6,1.4-.7.9-1.9,1.6-1.7,2.8,0,1.4,1,2.3,1.4,3.5.2.9-.7,1.7-1.2,2.3s-1.6.9-1.7,1.7c0,.5.2,1,.2,1.6.2,1.2-.3,2.6-.5,3.8-.2.7-.3,1.4-.7,1.9-.3,1-1.4.7-1.6-.3-.7-1.7.9-3.7,0-5.4-.3-.3-.7-.7-.9-1.2-.3-.7-.2-1.7-.7-2.6-.2-.2-.5,0-.9,0-2.1.5-3.7,1.9-5,3.5-.9.7,0,1.7,0,2.8s-.3,1.2-.5,1.7c0,.3.2.5.3.7.2.2.5.2.9.2s.3.2.5.3c.7,1.2,1.6,2.4,1.9,3.7.2.7,0,1.9-.9,2.1-.3,1-1.6,1.6-2.6,2.3.5,0,1.4,0,2.1-.2,1.6-.2,3.5-.3,3.8,1.2.3.5.5,1.4.9,1.9.2.5.5.9.7,1.4.5,1,.9,1.9,1.6,3,.5,1.2,1,2.6,1.2,4.2.3,2.3-.3,5,1,7.1.2.3.5.5.9.7,1.2.2,2.3,0,3.5.3.7.3,1,1.2,1,1.9.3,1.6.5,3.1,1,4.5l.5.9c1.9,1.4,2.1,1.6,2.3,4,.2,1.4-.5,2.8-.3,4.2.3.9.7,1.7,1.6,2.3.7.5,1.6.5,2.3.9,1.9.9,2.8,3.3,2.8,5.2.2.5.2,1.2.5,1.6.3.5.7.9.9,1.4.5.9.5,1.9.5,3l-1,4.7c-.2.7-.2,1.6,0,2.3.3,1.6,1,3.1.2,4.7-.2,1-.9,1.9-1,3,.2,1.6.9,3.3.2,5-.3.5-.9,1.2-1.6,1-1.4-.9-.5-5.2-1.4-6.8-.3-.9-1-1.6-1.2-2.6-.3-.9,0-2.1-.2-3.1-.2-.9-.9-1.6-1.2-2.6-.7-1.4.2-2.8.7-4.2v-.2c-.9-.3-.5-1.6-.5-2.3s0-.2.2-.3c-.3-1-.7-2.1-.5-3.1.2-.3.5-.3.5-.9s0-.3-.2-.5c-.7,0-1.4.2-2.1.3-.3.3-.5.9-.9,1.4-.2.5-.3,1-.2,1.6.2.3.5.5.7.9.5,1.6.9,4-.9,5-.9.2-1.4-1-1.6-1.7-.3-.5.2-1,0-1.7,0-.2-.2-.3-.3-.3-.5-.2-1-.3-1.4-.7-.3-.5-.3-1-.5-1.4-.2-.3-.3-.9-.3-1.2.2-.9.5-1.7.2-2.8-.2-.3-.7-.5-1-.3-.5.3-.7.7-.9,1.2-.7,1.4-.3,2.8-.2,4.2.2,1-.9,1.7-1.6,2.4-.2.2-.5.5-.5.9,0,.5.7,1,1.2,1.2,1.9,1.2,6.3,1,5.4,4.4-.5,1.2-1.9,1.9-3.1,1.4-.7-.2-1.2-.7-1.7-1.2-1.2-.9-2.6-1.4-3.8-2.1-.5-.2-1-.7-1.7-.5-.7,1-1.2,2.4-2.1,3.5v.9c0,1-.5,2.1-.5,3.1.3,2.1,1.6,4,.9,6.3-.3.7-1.2,1.4-1.9.9-1.7-1.4-1.4-4-1.6-5.9-.3-1.2-.7-2.4-.3-3.7-.7-1.9,1.6-2.6,2.4-4v-.7c-1-1.9,0-3.7.5-5.6-1-.5-1.7-1.6-1.7-2.8s0-.5-.2-.7c-1.2-.2-.7,2.4-1.4,3.3-.7,1.2-2.1,1.7-3.3,2.4-.9.3-1.4,1-1.2,1.9.2.9.9,1.2,1.2,1.7.7.7.9,1.6.9,2.4.2,1.2-.3,2.4-.7,3.7-.3,2.6-.9,5.4,0,7.8.2.3.5.7.5,1,0,1.2-.9,2.3-.9,3.3v.5c0,.7.3,1.4.3,2.1-.2,1.4-.5,2.8-.9,4.4-.2.7-.2,1.4-.2,2.1.3,1.6.9,3,.9,4.5s-.2,2.4-1.2,2.3c-.5-.3-.9-.9-1.2-1.2ZM762.1,234.8c.3,0,.5-.2.7-.3.2-.2.3-.3.3-.7.2-.2.2-.5.2-.9v-.5c0-.2.2-.3.2-.5,0-.3-.2-.5-.5-.7h-.9c-.2.2-.2.3-.3.3,0,.2-.2.3-.2.5s-.2.2-.2.3v.9q0,.2.2.3v.2s0,.2-.2.3c0,.2.2.5.5.7h.2ZM763.3,268.6c.5-2.6,2.4-1.7,3,.3,0,1-.7,1.9-1,2.8-.3.5-.9,1.6-1.6.9-.9-.9-1.2-3.3-.3-4ZM764,241.8c1.9-.7,3.5-2.1,5.4-.7.3,0,.3-.2.5-.3v-.3c-.5-.3-1-.5-1.4-.9-.5-.7-1-1.4-1.9-1.6-.7.9-1.6,1.6-2.4,2.3-.7.2-.5,1-.3,1.6h.2ZM785.5,235.7v-1.2c0-.2-.2-.3-.5-.3s-.5,0-.5.2c-.2.3-.2.7-.2.9v.5c.2.2.3.3.7.3s.5-.2.5-.3ZM786.2,241.8c.3.3.3.9.3,1.2.2.9.9,3.3-.7,3.1-1.4-.7-2.3-6.1.3-4.4ZM790.7,162.1c1-.9,2.6-1.2,4-.7.3,0,.7.3.9,0,.9-.7,1-1.9,1.9-2.4,1.2-.2,1.9-1.4,3.1-1.4.3.2.5.7.5,1,.2.9,1,1.4,1.4,2.1.2-2.3-1.7-4.9-.2-7,.2-.5.7-1,.9-1.7.3-.9.3-1.9.5-2.8.2-.9.5-1.6.5-2.3.2-.7.2-1.6.9-2.1.2-.2.5-.2.9-.2.3-.3.5-.9.7-1.2.2-1.9-2.3-1.7-3-3.1-.5-.5-.7-1.4-.7-2.1-.2-1-.7-1.9-1.7-2.4-.2.7-.5,1.6-1.2,1.2-1.4-.9-.5-3-.7-4.2-.2-.3-.7-.5-.9-.7-.7-.3-1.4-.3-1.9-.2-.7.2-1.2.7-1.6,1.2-.2.2,0,.7,0,.9.2.9-.2,1.9-.7,2.6-.2.2-.3.3-.3.5,0,.5.5.9.9,1.2.7.9.7,1.9.7,2.8.2.9.2,1.7.2,2.6s-1.4,3.5-2.4,1.7c-.3-1,.2-2.3.3-3.3.2-.3-.2-2.1-.7-1.6-1.2,1.7-2.6,1.4-2.8-.7-.3-1.2-.9-2.3-.7-3.5,0-1.9,1-3.8.2-5.6-.3-.5-.7-.9-1.2-.9s-.5,0-.7.2c-.3,1.2-.5,2.4-.7,3.7,0,1-.3,1.7-.5,2.8,0,2.1.3,4.9-1.7,6.3,1.7,1.6,2.6,4.4,1.4,6.4-.2.5-.9,1.2-.5,1.9,1.7,1,2.4,2.8,2.3,4.7-.2,2.1-1.2,3.8-1.7,5.7v.5c.5.3,1.2.7,1.7.7.9-.3,1.7-.7,2.8-.9ZM791.5,149.4c.3-.5.9-1.2,1.6-.9,1,.7.2,3.8-1.4,3.3-1-.3-.7-1.7-.2-2.4ZM807.2,251.9c.7-1.4,1.7-.9,1.4.3-.2,1.2-.9,2.1-1.7,3s-.3.5-.7.5-.3.2-.7.2c-1-.9.9-3.7,1.7-4ZM812.3,153.5c.7-1.2.7-2.6,1.2-3.8.2-.7,1-1.2,1.2-1.9,0-.7.3-1.2,0-1.7,0-.3-.2-.5-.5-.7-.2,0-.3-.2-.3-.3-.2,0-.3,0-.3.2-.9,1.4-.7,3.1-1.2,4.7-.2,1-1,1.9-1.6,2.8-.3.5-1.2,2.1.2,2.3.7-.2,1-.9,1.4-1.4ZM823.9,201.6c-.2-.3-.5-.5-.9-.5s-.7.2-.9.7c-.2.3-.2.7-.5,1-.5.7.2,1.7.3,2.6.9-.5,2.6-3,1.9-3.8ZM827.8,238.7c1.2-.7,1.2-4.4.5-5.4-.5,0-1.7,1-1.6,1.7.3,1,.5,2.1.7,3.1,0,.2,0,.5.2.5h.2ZM833.8,256.4c-.2-.7-.5-1.2-.3-1.9,0-1.7,1-2.1,2.1-.5.9,1.4,1.4,3.5.5,5-.2.5-.7.7-1,.2-.5-.9-.9-1.9-1.2-2.8ZM846.4,270.7c-.3-1-.2-2.4.2-3.5.9-1.6,1.9-.5,2.6.7,0,.2.2.3.2.5.3.7.5,1.7.5,2.3,0,1.4-1.6,2.8-3,1.7-.5-.3-.5-1-.5-1.7Z"/>
  <path class="cls-1" d="M908,269.7c.2-1,.9-2.1.9-3.1-.2-.5-.5-.7-.9-1-.9-1.4-.7-3.3,0-4.7l.3-2.4c0-.5.2-1,0-1.6-1-1.6-1.6-3.5-2.1-5.2-1.2-2.4-1.9-3.7,0-5.9.2-.3,0-.7,0-.9-.5-.7-.2-1.6-.3-2.4-.2-.7-.9-1.4-1-2.1-.2-.9,0-1.7,0-2.4s-.2-.9-.2-1.4c-.2-.5-.2-1.2-.7-1.7-1.4.9-3.5,0-4.5,1.6.5-.2,1,.2,1.2.7,0,.9-.7,1.6-.5,2.4,0,.2.2.2.3.3,1.9.5,2.1,1.7,1.2,3.5-.2,1.2.9,2.8-.5,3.7-1,.3-.9-1.7-1-2.3.2-1.4-.5-2.8-1.9-2.4-.5,0-.9-.3-1.4-.5-.5-.3-1-.5-1.4-1.2s-.7-1.2-1-1.7c-.3-.3-.9-.7-1-1.2-.2-.3-.2-.9-.5-1.2-.7-.5-1.6-.5-2.4-.3-.2.3-.3.7-.5.9-.2.3-.5.5-.9.9-.3.5-.5,1-.5,1.6.2,1.2.7,2.4.3,3.5-.2.7-.7,1.2-.7,1.9,1.9,1.2.7,2.6.2,4.4,1.4,1.4,0,3.1.2,4.7-.2,3.3-1.7,1.2-3-.2-.9-1,0-2.6-.3-3.8-.2-.7-.9-.9-.9-1.6-.5-1.4.2-3-.2-4.4-.2-.3-.7-.5-1-.7h-.2c-.2,0-.2.5-.3.7-.3.9-.3,1.9-.5,3-.2.2-.3.3-.3.5-.2.5-.2.9-.2,1.2,0,1-.5,2.6-1.7,3-.7,0-1.6,0-2.3.3l-.5.5c-.3,1.2-.3,2.8-1.7,3.5s-.9.2-1.4.3c-.5.3-.7.9-1.2,1.4.3.9-.2,1.9-.7,2.6-.2.3-.7.7-.5,1l.7.5c.3.3.3.9.7,1,.9.5,1.9,1.2,1.7,2.4-.2.9-.7,2.1-1.7,1.9-1.9-.7-2.4-3.7-4.7-3.7-4.4,4.2-4-1-.5-2.6-1-.9-.7-2.8-.2-3.8.5-.7,1.6-1.4,2.3-.9.2-.9,0-2.1-.2-3.1,0-.9,0-1.7-.2-2.8-.2-.7-1-.9-1.4-1.4-.9-.9-.5-2.1.2-3,.9-1.6,3.1-3.8,2.1-5.6-.9-.7-1.7-1.2-1.7-2.3s.2-2.1-.7-2.6c-.3-.3-1-.3-1.2,0-.2.7.3,1.6,0,2.3-.3.7-.9,0-1.2-.3,0,.7-.3,1.2-.9,1.4.9,1.6-.5,2.6-1.9,3.1.2,2.4-.2,3.7-2.1,5,.3,1,.9,2.3.5,3.3,0,.7-.2,1.4-.7,1.6-.3.7-.3,1.2-.7,1.7-.3,1,.3,2.1-.2,3.1-.3.5-1,.2-1.4-.2-1-.7-1.4-1.9-1.2-3.1,0-1.2.9-2.1,1.4-3,0-.3.2-.7.2-.9-.5-1.2-1.9-1.9-1.4-3.3.3-.9,1-1.7,1-2.6.2-1,0-2.3-.2-3.5,0-.2,0-.5-.3-.7-.7.7-1.6,1.4-2.1,2.3-.2.5-.3,1-1,1.2l-.7-.2c-.2.9-1,1.7-.7,2.6.3,1.2.5,2.4.9,3.7,0,.9.3,1.7,0,2.6-.9.7-1.9,0-2.8-.2,0,.7.2,1.4-.3,2.1-.5.3-1,.5-1.2,1-.5,1.2,0,2.6-.9,3.7-.2.2-.3.3-.7.5-.5.3-1,.5-1.4,1,.2.9,0,1.9-.5,2.8-.5.7-.2,1.7-.5,2.8-.2.5-.7,1-1.2,1.4-4.4.3-2.8-4.2-.7-5.9-.7-.9-.7-1.9-.3-3,.2-1.6.9-3.1,2.3-4.2,0-.7.2-1.2.3-1.7.3-.9.7-1.9,1.4-2.8.5-.7,1.4-1.2,1.7-2.3.5-1,.5-2.4.9-3.7.2-.7.7-1.6.9-2.3.5-1,.3-2.3.7-3.3.2-.9.7-1.6,1-2.4.2-.3-.2-1,0-1.4,0-1-.2-1.9-.5-3-.3-1.6-.2-3.3.7-4.7-.5-1.4,0-3,.2-4.5-.2-.7-.5-1.4-.7-2.1-.2-.5-.2-1.2,0-1.9,0-.9.2-1.4.2-2.1s-.3-1.4-.3-2.3c0-1.4,1-2.8,2.1-3.7-.2-.7-.3-1.6-.9-2.1-.3-.2-.7-.5-.9-.9-.2-.9-.2-1.9-.2-3s-.2-2.3-.2-3.5,0-3.1.7-4c0-.5,0-1,.2-1.4.3-.7,1-1.2,1.4-1.9,0-.3,0-.9-.5-1-1.2-.7-1.7-2.3-1.2-3.7.3-1,.5-2.3,0-3.1-.3-1.6.2-3.3-.2-4.7-.5-1.7.3-3.3,0-5-.2-1.2.3-2.4.5-3.7,0-1,.2-1.9.5-2.8.3-.7.9-.9,1.4-1-.3-.7-.2-1.6-.7-2.1-1-.9-2.3-1.9-1.9-3.3.2-.3.3-.5.3-.9.5-1.9-.2-3.8.2-5.9.2-1.2-.7-2.3-.3-3.5.2-.9.3-1.9.7-2.8.2-.5.7-.9.3-1.4-.3-.7-.7-1.4-.5-2.1,0-1-.7-2.1-.7-3.1-.2-1.4.2-3,0-4.4.2-1.2,0-2.6,0-3.8.2-.9,0-2.3.9-2.6l.7.2c.2-.3.5-.5.9-.5s.5.2.7.5c.5.3.9.7,1.2,1.2.5,1-.3,2.1-.2,2.8.5.7.9,1.4.9,2.3.2.3,0,.7-.2,1.2.3,0,.7,0,.9-.2.2-1.4-.3-2.8-.5-4.2-.2-1.2-.5-2.3-1-3.3-1.2-2.3-3.3-3.7-4.2-6.1-.3-1.9.5-3.7.3-5.6-.3-3.7-.2-7.3-.7-11,0-1.2.3-2.6.3-3.8-.2-1-.5-1.9-.2-3,0-.7.7-1,1.2-1.4.3-.2,1,0,1.4,0,.5.2,1.2.2,1.7,0,.7,0,1.4.2,2.3,0,.7,0,1.4-.3,2.1-.5,1-.2,2.1,0,3,0,.7.2,1,.7,1.6,1.2.7.3,1.6.3,2.4.2.7-.2,1.2-1,2.3-.9.9.2,1.7-.2,2.8-.2.9.3,1.7.3,2.6.2,1.7,0,3.5.2,5-.2,1.4-.3,2.8.2,4.2.7,1.4.7,2.8,0,4-.3,1.2,0,2.3.2,3.5.2.7.2,1.6.5,2.4.5.5.2,1.2.2,1.7.3h.5c.5-.3,1-.3,1.6,0,1.4.2,3,.3,4.2,1.2,1.2.7,2.6.7,3.8,1,1,.2,1.7.9,2.4,1.4,1,.5,2.1.7,3.1,1.4.3.3.5.9.7,1.2.5.5,1.2,1,1.9,1.2.5,0,1-.3,1.6-.3,1.2-.2,1.2-.3,2.1.7.7.5.9,1.4,1.4,2.1.5.9,1.2,1.6,2.1,1.7,1,.5,1.7,1.6,2.8,1.9,2.4,1,5,2.3,6.4,4.7.5.7.9,1.4,1.2,2.1.9,1,1.7,1.9,2.4,3.1,1,1.9,1.4,4,2.6,5.9.9,1.4,1.9,2.8,2.4,4.4l2.1,6.3c.3.9.3,1.9.3,3,.3.3.5.7.9,1.2.3.7.2,1.6-.2,2.3.2,2.6.2,5-.2,7.5-.3,1.7,1.9,1.6,2.3,3,.2,1.4-.2,2.8-.2,4.2.2,1.9.3,4,.2,5.9,0,.9-.5,1.6-.7,2.3,0,1,.3,1.9.7,2.8.2.7-.2,1.6-.2,2.3-.2,1-.7,1.9-1,2.8-.2.3-.3.7-.3,1s.2.5.3.9l.5,1c.2.9.5,1.6.9,2.4.3,1.7-.5,3.3-1,5-.2,1.2-.5,2.3-.7,3.5,0,.3.2.5.2.9.5,1.2.7,2.6.5,4-.2.7-.5,2.1-1,1.4-.3-.9,0-2.1-.3-3-.2-.7-.9-1.9-1.4-.7-.5.9-.2,1.7-.3,2.6,0,.5,0,1-.2,1.6,0,.2,0,.3-.2.5v1.6c0,1-.2,2.3,0,3.1.3.7.7,1.2.9,1.9.2,1.2-.5,2.4-.2,3.5.2,2.1,2.3,4.9.5,6.6s-.9.5-1.4.3c-2.3-1.6-1-6.8-2.8-8.9-.2.3-.3.9-.7,1.2-.2.3-.5.7-.7,1.2,0,.5,0,1-.2,1.6,0,1-1,1.7-.9,2.8,0,.5.3.9.3,1.4s-.3,1-.3,1.4c-.2.3,0,.5.2.9.2.5.3,1.2.2,1.9,0,.7-.5,1.6-1.2,1.4-.5-.2-.9-.9-1.2-1.4-1-3-3.8-2.1-5,.3-.2.3,0,.7.3.5.3,0,.5,0,.9.2l.5.7c1.2.7,1.7,1.6.5,2.6-.7.7-1.2,1.4-1.6,2.3-.2.7-.5,1.2-1,1.6-.3.3-.7.5-1,.3-.3-.3-1-.9-1.4-.3-.3.7-1.4,1.7-.7,2.4.5.3,1,.5,1.4.3.5-.3,1-.9,1.7-.7.5,0,.9.2,1.4.2.7-.3,1.7,0,1.9.9l-.2.2c.3.3.3.9.2,1.4,0,.2.2.5.5.5.5,0,1.2-.5,1.9,0,1.2,1,.5,3.3-.7,4,1.4,1.2,2.4,2.6.5,4,.3,1.7,1.6,3.3.7,5h.2l.5,1.4c.9.3,1.2,1,1.9,1.6.3.2.5.5.9.9.5.2.7,1,1,1.6.5.3,1.4.7,1.7,1.2.7.3.5,1.4-.2,1.7-.2.3-.5.2-.9,0l-1.6-1.2c-.5-.3-1.2-.9-1.9-1.2h-.5c.3.7,0,1.6-.3,2.1,0,1.4-.7,3.5-2.3,2.3-1.2-1-1-2.8-.7-4.4-.5-1.2-1.6-2.6-1.2-4q0-.2.2-.2v-1c0-.9-.2-1.7-.2-2.6v-1.7c-.2-1.6-2.1-2.3-2.6-3.7-.2-.7.2-1.6,0-2.4v-.2c-.5-.7-.9-1.6-1.6-1.9-.2,0-.3,0-.5-.2-1.9.9-3.1-1.6-4.9-1.9.2.9-.3,1.9-.5,2.8-.3,1.4-.5,2.6-.7,4,0,.9-.5,1.4-1.4.7-.9-.9-.2-2.3-.2-3.3.2-1-.9-1.6-1.2-2.4-.3-1.2,1.2-2.3.3-3.3,0-.2-.2-.2-.2-.2-.2-.2-.3-.3-.3-.5-.2-.5.2-1.2.2-1.9s-.2-1.6-.9-2.1c-.5.9-.9,1.7-1.9,1.7-.3.7-.5,1.4-1,1.9-.5.5-.9,1.4-1.4,2.1,0,.7.2,1.4-.3,2.1v.3c-.2,1.2-.9,2.1-.9,3.1.2.9-.2,1.7-.3,2.6.2,1,.7,1.9.2,3-.2.7-.3,1.4-.9,2.1-.2.2-.7.5-.7.9-.2,1.6,0,3.1.5,4.5.2.5.5.9.7,1.4.2.3.2,1,.3,1.4,0,.5.3,1,.5,1.6.3,1,.2,2.1,0,3.1s-.9,1.9-.5,3c.7,1.2,1,2.6,1.4,4,.3.9,1.2,1.4,1.7,1.9,1.2,1.7-1.2,3.1-2.4,3.8-.5.9-.9.9-1.4.2-1.4-.5-2.1-.9-1.6-2.6ZM859.4,234.1c-.2-.5-.9-.3-1.2,0-.5.5-.9,1.2-1,1.7v.3c.5.3,1,.3,1.6.3.7.2,1.4.2,2.1.2-1.9-1-.5-1.4-1.4-2.6ZM879.5,241.3c.3-1,1.4-1.6,2.1-2.3s.5-.7.2-1c-.9-1.6-1.6-1.7-3.1-.7-.7.7-.5,1.7-1.2,2.4-.5.5-1,0-1.4-.3-.3-.2-.9-.3-1.2-.2,0,.3,0,.5-.2.7.3,1.4,1.2,3,.5,4.4-.3,1-1.7,1.7-1.4,3,.2.3.7.5,1.2.5,3-.7,3.1-4.4,4.5-6.4ZM879.5,159.8c.3-.7,1-1.2,1-1.9.2-1.2.2-3.8-1.6-3.1-.3.9,0,1.9-.2,3-.2.7-.7,1.4-.9,2.1-.3.9-.7,2.4.5,2.8.9-.7.9-1.7,1-2.8ZM894.6,202.3c.5-.2.9,0,1.4,0,.5-.2.7-1,1-1.6.3-.3.7-.7,1.2-.7.7-.2,1.7-.3,2.3-1.2.5-1.4,1-2.8,2.1-3.8.3-.9.5-1.9,1-2.8.2-.3.7-.3.9-.7.5-.5.7-1.4,1.6-1.9.5-.3,1,.2,1.7.2.9.2.5-1,.3-1.6,0-.3-.3-.5-.5-.9v-.5c0-.7,0-1.4-.3-1.9s-.3-1.2-.2-1.9c0-.3.2-.9.3-1.2,0-.9,0-1.7.2-2.6v-.9c-.9-1.4.7-2.6.9-4,0-.5.2-1-.2-1.6-.2-.3-.5-.7-.5-1-.2-1,.3-2.4,1.2-3,.5-.2,1-.2,1.6-.3-1-1.4-.9-3-1.4-4.5l-.9-1.4c-.3-.9-.2-1.9-.2-2.8,0-1.4-.7-2.4-1-3.7l.2-1.7c.2-.3,0-.9-.3-1.4-.2-.3-.3-.5-.3-.9-.2-.7-.5-1.2-.3-1.6-.2-.7-.9-1-1.4-1.6l-.9-1.6c-.2-.2-.5-.3-.7-.7-.3-.5-.2-1.2.2-1.6s.5-.7.7-1c.2-.2.5-.3.3-.5-.2-.5-.5-.9-1-1.2-.7,0-1.4.3-1.7.9-1,1.2-1.9.7-2.1-.7h-.3c-.2.9,0,1.7-.3,2.4-.2.9-1,2.1-1.9,1.2-.5-.3-.7-1.2-.3-1.6.3-.5.2-1,.3-1.4,0-1,.3-2.1-.3-2.8-.2-.3-.2-.7-.2-.9-.3-.3-.7-.3-1-.3,0,.7-.2,1.2-.7,1.6l-.5,1.2c.3.3.5.9.3,1.4,0,.9.2,1.6.2,2.3s.2,1.6,0,2.4v.7c.2,1.2-.2,2.4-.3,3.5,0,1.2.2,2.3.2,3.3s0,1.7.5,2.4c.3.5.9,1.2.9,1.9.2,1.6-.5,3.7-2.4,3.5-1.7-.5-2.1-1.9-1.9-3.5,0-1,.9-1.7.7-2.8,0-.9-.3-1.7-.5-2.6,0-1,.2-2.1.3-3.1v-2.1c-.3-.3-.5-.9-.5-1.2,0-1,0-1.9.5-2.8.5-.7.3-1.6.2-2.3l-.3-.9c0-.3.2-.7,0-1.2-.3-.2-.5-.9-.3-1.2,0-.3.3-.7,0-.9l-1-.9c-.3-.5,0-1,0-1.7-.5-1.6-1.2-1.7-2.8-1.2,0,.5-.3.9-.3,1.4.9.7,1.2.9.9,2.1,0,.5,0,.9-.2,1.4-.2.7-.5,1.2-1.2,1.4.2.5.3,1,.2,1.6s-.2,1-.5,1.6c-.2.2-.5.2-.7-.2-.5.3-1,.2-1.6.2-.2.5-.3.9-.9,1.2.7,0,1.2.3,1.9.3s1.7,0,2.6.5c.3.2.3.3.5.3.2.2.2.3,0,.3h-.3c.2.3.2.7.2.9.2.9-.3,1.6-.7,2.1-.2.2-.3.5-.2.7,1.2,1.7.3,3.8.5,5.6,0,1.7.5,3.5.3,5,0,1-.3,1.9-.3,3,.3,1.9.5,4.4-.7,6.1-.2.2-.2.5-.2.9,0,.7.2,1.2.5,1.7.2,1,.5,1.7.7,2.6,0,1-.5,1.9-.3,2.8.5,1.2.5,2.6.3,3.8,0,1.4-.5,3-.9,4.4,0,1.2,0,2.6-1.4,3l-.2,1.2c.3.3.9.5,1.4.5.3.2.7,0,1,.3.2.3.2.9.2,1.4s.3,1.4,0,2.3c-.2.5-.5,1-.7,1.7v1.7c.5.3.9.7.9,1.2-.2,1.2-.2,2.4-.3,3.7,0,.5.7.7,1,1,1-1.9,3.3-2.4,5.2-2.4ZM885.7,260.4c-.2-.7.3-1.2.9-1.6,0-.2.2-.5.3-.7.3-.5.7-1.2,1.4-1.6.9-.2,2.1-.2,2.6.7.3.3.2.7.3,1,.2.5.3,1,.2,1.7-.2,1.6-1.9,1.4-3.1,1.7-.5.2-1,.7-1.6.3-.5-.3-.9-1-1-1.7ZM896.3,150.8v-1.7c.2-.5.5-1.2,1.2-1.2l.7.2c1,.5.9,1.7.5,2.4-.5.7-.7,2.1-1.6,2.1s-.9-1.2-.9-1.7ZM907.1,139.1c-.3-.5-.9-1.4-.9-2.1h-.5c0,.2-.2.3-.2.5-.2.5-.3,1,0,1.6.5.7.9,1.7,1.2,2.6.5-.7.5-1.7.3-2.6ZM918.1,247.7c-.5,0-.9.2-1.2,0-.5-.5-.3-1.4-.2-1.9.3-1,1.2-1.6,2.1-2.1.3-.5,1.2-.2,1.6.2h.2c.3.7,0,1.6.3,2.3.7.9,1.4,2.4.5,3.3-.5.3-1,.5-1.4,0-.7-.5-1-1.6-1.9-1.7ZM922.8,226.8c.7-.3,1-.9,1.2-1.6l-.5-.3c-1,.7-2.1,1.6-3,2.3-.3.3-.3.7-.5.9l1,.5c.7-.3,1-1.2,1.7-1.7ZM935,227.9c-.9-.3-1-1.4-.7-2.1-.3-.5,0-1,.3-1s.7.2,1,.3c.2,0,.3.3.3.5.3.5,1,1.2.9,1.9-.2.5-.7,1.2-1.2,1-.3-.2-.5-.5-.7-.7Z"/>
  <path class="cls-1" d="M1012.4,274.2c-1.2-2.3.5-4.5,1-6.6,0-1.9,1-4.7-.7-5.9-1.2-1,.2-2.8-.2-4-.3-.9-1-1.4-1.6-2.1-.3-.9-.3-1.9-.5-2.8s-.9-1.4-1.6-1.9c-.5-.3-1-.9-1.6-1.4-.7-.7-1.2-1.7-1.7-2.6-.7-1-1.4-2.1-1.9-3.1-.5-1.9.5-3.5,1.4-5,.3-.9.3-1.9-.3-2.6-1.6.5-1.6,2.8-2.6,3.7-.3.5-.9.7-1.4.5-.5,0-1-.5-1.6-.7-1.2,1.4-2.4,4.2-.7,5.7.7.5,1.2,1.6,1.2,2.4-.2.9-.5,1.6-.5,2.3-.2.9.3,1.7.3,2.8s-.9,1.4-1.2,2.3c-.2.9-.2,1.7-.9,2.6-.5.5-1.4,1.2-1.6,2.3.3,1,.9,2.3,1.7,3.1.7,1.4-1,2.6-.9,3.8.2,1,.3,1.7.3,2.8-.2,1-1.4,3.3-2.6,2.8-.5-.3-.3-1-.3-1.6-.2-1.9.2-3.8-.7-5.6-1.2-.3-1.7-1-1.4-2.3.2-1.2.7-2.4.9-3.7s1-2.3.2-3.3c-.7-.7-1.6-1.2-1.7-2.3-.2-.9.2-1.7.7-2.6l.5-2.3c.2-.9.5-2.3-.7-2.6-1-.3-1.9-1-2.8-1.7-1.4-1-2.8-2.3-3.3-3.8-.5-.9-.3-1.9-.2-3,.3-1,.9-2.8-.3-3.5-1.4-.5-1.6-.7-2.6.5,0,.5-.2.9-.3,1.4l-.5,1.4c-.3.3-.3.7-.3,1.2-.3,1.2-1.4,1.7-2.6,1.9-.3.2-.7.2-.9.5-.7,2.4,4,1.9.7,6.3-.3.3-.2.9,0,1.2.3.7.9,1,1,1.6,1,2.3.7,4.9-.5,6.8.9,1.9,3.3,3.1,3.3,5.6.2.9-.3,1.7-1,2.3l-.5.3c-.2.2-.5.3-.7.2-.7-.5-.7-1.4-.9-2.3-.3-.9-.9-1.6-1.4-2.4-.3-.3-.3-.7-.7-1-.5-.5-1.2-.5-1.7-.9-1.9-1.2,1-4.5-2.6-4.9-.7,0-.9.7-1.2,1.4-.2.3-.5.5-.9.9-.7.5-1.7.5-2.4,1-.5.5-.9,1-1.4,1.2-.7.5-1.7.2-1.7-.7-.2-1.6,1.4-2.8,2.4-3.8l1.6-.9c.9-1,1.6-2.1,1.9-3.3.2-.9-.9-1.4-1.6-1.6-1.2-.3-2.4-.3-3.7-.7-4.2-.9.2-6.6-5-6.4-.7,0-1,.7-1.2,1.4s0,1.2.2,1.9c0,1.7,1,3.5.3,5.2-.2.9-.9,1.6-1.4,2.4,0,.2-.2.3,0,.5.2,1,.5,1.9.2,3-.5,1.7-2.6,2.4-3.3,4.2,0,.3-.2.7-.2,1l1,2.3c.3.7.3,1.4.2,2.3,0,.7.2,1.4-.2,2.1-.5.9-1.7.3-2.4.2,0,.9-.2,1.7,0,2.8.2.5,0,1.4-.5,1.7-.5.5-1.6.2-2.1-.3-.7-.5-.7-1.6-.7-2.3.2-3.3.2-6.4.9-9.6.2-1.4,1-2.6,1.2-4s.2-2.6-.3-3.8c-.3-.9-1-1.6-1.4-2.3-.9-2.6,1.2-4.9,2.1-7.1.2-.9-.2-1.7-.2-2.6.2-.7.3-1.6.3-2.3.2-.5-.2-1,0-1.7,0-.7.3-1.4.3-2.3.2-.7-.2-1.4-.2-2.1s0-1.6.3-2.4c.2-1.2,1-2.3.7-3.7-.2-.3-.7-.7-.9-1.2-.3-1.2.2-2.6.2-3.8-.2-1.4-.7-2.8-.7-4.2.2-.7.2-1.4.5-2.1,0-.3.3-.3.3-.5.2-.2.2-.5.2-.5.2-1-.3-2.1-.3-3.1s0-.3.2-.5c-.2-.5,0-1,.2-1.4,0-.3.2-.5.3-.9v-1.4l-.5-1.2c-.3-.7,0-1.4.2-1.9,0-.5-.2-1.2.3-1.6.2-1.9,1.7-.3,2.6-.3s1.4-.5,1.9-.3c.9.3,1.6.9,2.4.7.5-.3,1-.5,1.7-.3.5.3,1,.7,1.7.7-.2-.5,0-1-1-1-.3-.2-.7,0-1.2,0s-.7.2-1.2,0c-.9-.2-1.4-.7-2.3-.9-1.7.3-4.4-.5-5-2.3-.5-2.8-.2-5.6.2-8.4-.3-3.3-.2-6.6-.3-9.9-.2-1.2.3-2.4.3-3.7-.9-2.8-1.4-5.7-.3-8.5,0-.7-.2-1.2,0-1.9.3-.5.5-1.4,1.2-1.9,1-.3,2.1-.3,3.1-.7-.5-.5-1.4-.7-1.9-1.2-.3-.5-.2-1-.2-1.6,0-1.4.3-3-.3-4.4-3.1-4.5-2.1-4.4-2.1-9.4.3-2.6-.3-5,0-7.5.2-1.6.3-3.1.2-4.5-.2-1.6-.9-2.8-1-4.2,0-2.1.3-4.2.7-6.3.3-1.4,1.4-2.4,1.4-4-.3-.9-1.4-1.6-1.4-2.8-.2-.7.2-1.6.3-2.4,0-1.4-.9-2.6-.3-4,.2-.9.7-1.9,1.7-1.6.2,0,.3.3.5.2.5-.2.5-.9.3-1.2-.2-.9-.5-1.6-.9-2.3-.7-1-1.7-1.7-2.1-3-.2-2.4,1.9-3,3.8-1.9,1.4.2,2.8,0,4.2,0h3.1c1.7,0,3.7,0,5.4-.3,1-.2,1.9,0,3,.2.9.2,1.6.2,2.4.2,1.4.2,2.8-.2,4.2-.3,2.1,0,4.2.2,6.3.2,1.4.2,2.6.5,3.8,1.2.7.5,1.4,1,2.3.9,1-.5,1.9-1.2,3.1-1.7.9-.5,1.9-.5,3-.3h7.3c.9.2,1.7-.2,2.4-.3,1.2-.2,2.4.3,3.5.9,1.4.5,2.6.9,4,.5l2.1-.5c.3-.3.9-.5,1.2-.5.9,0,1.7-.3,2.4,0l.2.2c.5.2.7.5.5,1.4,0,.9.2,1.9.2,3,.2.9.2,1.9.2,2.8-.2.9-.3,1.9-.2,2.8.3,1.2.7,2.4.2,3.7-.2.3-.2.7-.2,1.2v.3c0,1-.7,1.9-1.6,2.6-.7.9-.2,2.1.3,3,.3.7.7,1.6.7,2.4.3,1.7.2,3.7.5,5.4.3,1.9.9,3.3-1.4,4.2,0,.5.2,1.2,0,1.6-.5.7-1.2,1.2-1.9,1.2-.9-.3-.3-1.6-.5-2.1-.2-.7-.5-1.2-1.2-.9-.9.3-1.7.2-2.4-.3h-.5c.5.7.3,1.7,0,2.4-.9.7-1.7-1.2-2.3-1.7s-.3-.5-.7-.7c-.7.5-1.2,1-1.7,1.6-.3.3-.2.9-.2,1.2-.2.5-.2,1-.3,1.4-.3.9-1.2,1.4-1.6,2.1.2.7-.5,5-1.6,3.5-.2-.2-.2-.5-.2-.9l-.2-1.2v-.7c0-1.6,1-3.1.5-4.5-.7-.3-1.4-.2-2.1,0-.5.2-1.2.2-1.7.2-1.4-.2-1.2-2.1-1.6-3.1,0-.2,0-.3-.2-.3-.3-.2-.7.2-1,.3-.5.2-.3.9-.3,1.2.2.9-.3,1.6-.9,2.1,0,.7-.2,1.4-.2,2.1.2.7.3,1.4,0,2.1l-1,1.4c-.3.9.2,1.9-.7,2.4-.5.3-.9-.5-.9-1-.3-2.1,0-4.4.2-6.4,0-1,.3-2.3-.7-3.1-.7-.3-1.4-.5-1.9-1-.5-.3-.7-.9-1-1.2-.2-.3-.3-.7-.7-.3-.5.3-.9,1-1,1.7,0,.7.3,1.6.3,2.4.2.9-.3,1.6-.5,2.4.3.3.7.7.9,1,.9,1.6.2,3.5.3,5.4,0,.3-.3.5-.5.9v1c-.2.7.2,1.4.2,2.3s-.2,1-.2,1.6.2.2.2.3c0,.9-.2,2.4,1,2.4h.3c.7,0,1.4-.2,2.3-.2s.7-.2,1-.2.7.2.9.2c.3,0,.5.2.9.2,1.4,0,2.8-.5,4.2-.5,1.6-.2,3.1.2,4.7.3,1.6-.3,3-.5,4.5,0h2.8c.3,0,.5,0,.7.2h1c1-.5,2.3-.9,3.3-.3s.7,1.4.7,2.1,0,1-.2,1.4c-.2.7-.9,1.2-1.2,1.7.3,0,.7.5.3.9-.3.2-.7.5-.9,1,0,0,0,.2.2.2.3.9,1.2,1.4,1.9,2.3.3.7-.2,1.7-.3,2.4-.3.5-.2,1.2-.2,1.9v.2c0,.9-.3,1.7-.3,2.6.2,3,2.3,3.3.7,6.6-.5,1.4-.3,2.6,0,3.8.2.9.5,1.9.2,2.6l-.3.5c.2.7,0,1.6-.3,2.1-.2.2-.3.3-.5.3-.2.7-.5,1.2-.9,1.7-.3.5-.5,1.2-.5,1.9s.2,1.2.3,1.9c.5.7.9,1.4.7,2.3,0,.5-.5,1.2-1,1-.9-.7-1.2-1.9-1.9-2.8-.7-.9-.3-1.9-.3-2.8s0-.3-.2-.7v-.5c0-.5-.2-.9-.2-1.2-.2-.5-.5-.7-.9-1,0,0,0-.2-.2-.2l-.5-.5s0-.2-.2-.2c-.3.9.2,1.9-.5,2.6,0,.3-.2.3-.5.3-1.7-.7-1-3-1.2-4.5l-.3-.3c-.7,0-1.6.3-2.1.9-.5.3-1,.7-1.7.7s-.9-.3-1.4-.5c-.9,0-1.7.3-2.4.7-.3.3-1,.7-1.6.9,0,.2-.2.3-.2.5.3.9.9,1.6.9,2.6s-.7,1.9-1.2,2.8c-.5,1.2-.5,2.4-1,3.7-.2.2-.3.7-.9.5-.9-.5-.7-1.7-.9-2.6-.2-1.7.3-3.5.5-5.2,0-.3-.3-.7-.7-1-.3-.5,0-1.4-.2-2.1,0-1.4-.5-1.2-1.7-1.2-1.4.2-4.4,0-4.2,2.1,0,1.2.9,3.1-.5,3.8-.2.2-.3.5-.3.7-.2.7.5,1,.7,1.7.2,1,0,2.1,0,3.1v.3c.3,1.4,0,2.6.3,4,.5,1.7-1.2,3-2.1,4.4-.2.7-.5,1.6-.3,2.3q0,.2.2.2c.7-.3,1.2-1,1.9-1.4.5-.2,1.2-.2,1.7-.2,1,0,2.1-.5,3-.5.9.2,1.6.5,2.3.9.9.3,1.7-.2,2.6-.3,1.2-.2,2.3-.2,3.5,0,.7.2,1.2.2,1.9.2.7-.2,1.2-.2,1.9,0,.7.2,1.6.7,2.3.9.5,0,1,0,1.6-.2h1.4c1.2,0,2.1-.3,3.1-.7,1-.5,2.3-1.2,3.8-.5.5.2.9.5,1.4.7.3,0,.5.3.7.5.5,1.6.5,3.3,0,4.9-.5,2.6.3,5.4-.5,7.8-.3,1.2.7,2.3.9,3.3.9,3.5.3,6.1-1.7,8.7-.2.2-.3.5-.2.7v.2h.2c.5.5,1,.9,1.4,1.4.3.7.3,1.4.3,2.1v.2c.2.2.3.5.3.7,0,.5,0,.9-.2,1.2,0,1-.5,1.9-.7,2.8v4c.3.7.9,3.8-.5,3.5-.3-.2-.5-.5-.7-.9l-1-2.8c-.2-.5-.9-.7-1.2-1.2-.9,0-1.6.2-2.3.5-.3.5-.5,1-.3,1.7-.2,1.9,1.6,3.3,2.1,5,.2.9-.3,1.7-.5,2.6,0,1.6,1.4,2.8,1.4,4.4.2,1.6-.5,2.8-1.2,4.2-.2.5-.3,1-.3,1.6.2,1.2.9,2.1,1.2,3.1.7,2.4-1.4,4.4-2.6,6.3-.3,1-.5,4.9-2.1,4.9s-.5-.2-.9-.3ZM963.9,261.6c0-.7,1.4-3,2.1-1.7.3.7,0,1.4-.3,2.1,0,1-.3,1.6-1.4,1.2-.7-.3-.7-1.2-.3-1.6ZM972.9,244.8c.2-.7.2-1.6,0-2.3-.2-1.6-1.6-2.6-2.3-4-.3-1,.3-2.3,0-3.3-.9-1-3.1-.9-4,0-.3.2-.5.5-.7.9,0,.2,0,.5-.3.5-.5,1,.3,1.7,1.2,2.1,1,.7,3,.3,3.5,1.9.9,1.4.7,3.8,2.4,4.4q.2,0,.2-.2ZM985.6,160.5c.2,0,.3,0,.3-.2.2-.2.3-.3.3-.5v-.5l.2-.7v-1.6c-.2-.3-.2-.9-.2-1.2v-1.6l.3-1.4v.2c0,.3.2-.5.2-.9.2-.2.2-.5.3-.7,0-.5.2-1,0-1.6,0-.3-.2-.5-.3-.9,0-.2-.2-.3-.2-.5l-.3-.3c-.2-.2-.3-.2-.5,0h-.3l-.2.2c-.2,0-.5,0-.7.2l-.2.7c-.2.5-.2,1-.2,1.6s.2,1,.2,1.6,0,.7-.2.9v1c0,.5-.2.9-.2,1.4l-.3,1.4c0,.2,0,.5.2.7,0,.2,0,.5.2.7l.5,1.2.5.7s.2.2.3.2h.2ZM987.9,248.1c0-.5,0-1,.5-1.2,1-.3,2.4.2,2.3,1.6-.2.7-.9.9-1.4,1.2-.2.7-.2,1.7-1,1.7-1.2-.5-.9-2.3-.3-3.3ZM991.9,238.5c.5-.3.7-.9,1.2-1.2.7-.3,1.2-.5,1.9-.5.5-.3,1.2-.9,1.4-1.6-.3-.3-.9-.3-1.4-.3-1.6,1.6-4.2,1.9-5.6,3.8.3.2.7.2,1,.2.5-.2,1-.2,1.4-.3ZM1011,238.8l.9-1.6c.5-.5,1.4-1.7.2-1.9-.9.7-2.1,1.7-2.1,3s.2.2.2.2c.2.2.3.3.7.3h.2ZM1017.3,215.2c.2-.2.3-.7.3-.9,0-.3.2-.3.2-.5v-.2c0-.2.2-.2.2-.5s0-.7-.2-.9c-.2-.2-.2-.3-.3-.5-.5-.3-.3-1.7-.7-2.1s-1.2-.2-1.4-.7c-.2-.3-1.4,0-1.6.2l-.2.2c-.5.5-1,1.9-.7,2.8.2.5.5,1,1,1.2.5.2.9-.2,1.2,0,.5.2,0,1.2.3,1.6l.3.3c.3.3.9.5,1.4,0ZM1021.5,255.2c-1.4,0-1.4-6.3.3-5.6.5.2.9.9,1,1.4.2.5.3.9.2,1.4-.2.9,0,3.5-1,3.5-.2-.2-.3-.3-.5-.7Z"/>
  <path class="cls-1" d="M1052.6,266.7c.2-.7.3-1.2,0-1.9-.2-.7-.5-1.4-1.2-1.4h-.3l-1,.7c-1.2.3-1.6,1.9-3,1.9s-.9-1-.3-1.7c.2-1,1.2-1.6,2.1-1.9,0-.3.2-.7.2-1-.2-.5-.3-.9-.3-1.4s.9-1.2,1-1.9c-.7-.9-.5-2.1.5-2.6,0-.2,0-.3-.2-.3-.5-.9-.5-1.6.2-2.3,1.4-1.4,4.5-5,4-7-.3-.9-1-1.2-1.6-1.9s-.7-1.7-.9-2.6c-.2-.5-.2-1.2,0-1.9,0-.9.7-1.6.7-2.6-.2-.7-.9-.9-1.4-1.2-1-.5-2.4-.9-3.1.2v.7c.2.5.5,1,.5,1.6l-.5,1.4c1,1.6.2,2.8-.2,4.4,0,.5,0,1.2-.2,1.7,0,.5-.5.7-.5,1,0,1.4-.2,3.3-1.7,1.6-.5-.7-.5-1.6-.3-2.4,0-1.2.5-2.4.5-3.7-.3-.9-1-1.9-.7-3,.2-.5.7-1,.3-1.6-1.2-.7-.2-2.1-.2-3.1s-.5-.3-.9-.5c-.5-.2-1.2-.5-1.7-.5-.7.2-1,1.4-1,1.9,0,1-.2,1.9-.5,2.8,0,.2,0,.3.2.5.5,1.2,1,2.4.7,3.7-.2.9-.5,1.6-.5,2.4.3.9,1,1.7,1,2.8s-.2,1.9,0,2.8c.2.9.3,1.7.3,2.8v.9c0,1.2.2,3-1.4,3-1,.2-1.4-.7-1.2-1.6,0-.7,0-1.2-.2-1.7,0-.2-.2-.3-.2-.5-2.8-1.7.7-3.3-.7-5.4-.5.3-1.2-.2-1.9.3-.9.7-.9,2.1-1,3,0,1.6-.2,2.8-.3,4.2,0,.3,0,.5.2.7.7.5,1.4,1.6,1.2,2.6-.3,1-1,2.4-2.4,2.4s-1.6.9-1.7,1.7c.2.9.2,1.6-.2,2.3-.3.5-.7.7-.9,1.2-.2.5,0,1.2-.3,1.7-.5.7-1.6.7-1.9-.2-.3-.7.2-1.6.5-2.3-.7-1.2-1-2.8-.2-3.8.5-.5,1-.9,1.4-1.4.3-1.7,1.4-3.3,1.6-5,0-.2,0-.3-.2-.3-1.6-1.7-.3-3.3.3-4.9,0-.9.2-1.6.2-2.4-.3-1-.3-2.3.2-3.3.2-.9.9-1.9.5-3-.3-.5-.7-.9-.7-1.4-.2-.9.3-1.4.5-2.1.2-1,.3-2.1.7-3.1-.3-.7-.7-1.4-.9-2.1s0-1.6.2-2.3c-.2-1.2-.2-2.6.3-3.8.2-.7-.2-1.4-.3-1.9,0-1,.5-1.9,1.2-2.8-2.3-2.6.3-3.8-.5-6.4-.5-1.4-1-3-.9-4.4q0-.2-.2-.3c0-.9,0-1.9.3-2.8.2-.7.7-1.2.7-1.9-.3-1.2,0-2.6.5-3.8.2-.5.5-1,.5-1.6-.2-2.1-1.9-4-1.4-6.1-.2-2.1.2-4.4.2-6.4-.3-1.9-.2-3.8,0-5.9,0-1.7-.3-3.7-.2-5.4-.2-1.4-.7-2.8-.5-4.2-.2-1,.7-4.5,2.1-2.6.5,1.2.5,2.6,1,4,.5,1,.9,3,2.3,3s.2-.2.2-.2c-.5-1-1.4-1.9-1.4-3s.3-1.7-.2-2.6c-.2-.5-.9-.7-1.2-1.2-.3-1,.7-2.1,1.2-3-4.2-3.7-3.3-4.2-3.1-9.4-.3-2.3-.7-4.5-.3-6.8.5-1.7,1.2-3.5,1.2-5.4-.3-1.2-.9-2.4-1-3.8-.2-1.4.3-3.1.2-4.7,0-.9-.3-1.6-.5-2.4,0-.9,0-1.6-.2-2.4,0-1,.7-2.8,1.9-2.4.5-1,0-2.1.5-3.1-1.2-1-2.4-2.4-2.4-4s.5-1.7.7-2.6c-.5-2.1.2-4.2,0-6.1-.3-2.1-.7-4.2-.9-6.3.2-1.6,0-6.3,2.4-5.7,2.1.3,4.2-.7,6.3.2.3.3.9.5,1.4.7.3,0,.7-.2,1,0,.7,0,1,.3,1.7.3.9-.3,1.4-1.2,2.3-1.4,1.2,0,2.4,0,3.7-.3,1.4.2,3,.2,4.4.2,1.6.2,3,.2,4.4.3,1,.2,1.9.7,3,.9.5,0,1-.2,1.6-.2,1.4,0,2.6.9,3.8,1.2,1,.2,2.1-1,3-1.4.9-.5,1.7-.9,2.8-.9s2.8.3,4.2.5c.5.2,1.9,0,3,.2,0-.2.2-.2.2-.2,2.3.3,4.5-.2,6.6.7.5.2,1,.5,1.6.9.2,0,.3.2.5.2h.2l4.4,1.6c1.7.7,3.5,1.2,4.9,2.4,1.7,1.4,3,3.1,5,4.4,1.6.5,2.8,2.1,4.4,2.6l2.4.9c1.4.5,2.3,1.9,3.3,3,1,1.7,2.1,3.7,3,5.4.7,1.4.9,2.8,1.6,4,.3.5.9.9,1,1.2.2.5,0,1-.2,1.6-.2,1,0,2.1.3,3.1.2.7.9,1.2,1,2.1,0,.9.5,2.6,0,3.5v1.6c0,.9-.7,1.9-.3,2.8.3.7.9,1.2.9,1.9.2,1.2.2,2.3.3,3.3,0,.9,0,1.6.2,2.4.3,1.4-.2,2.6-.2,4-.2.3.2.7.3.9.2.5.3,1,.3,1.4-.3,1.4.5,9.1-1.4,8.7-.2-.2-.2-.3-.2-.7-.2-1.2.2-2.6-.3-3.8-.9-1.4.2-3.1-.5-4.7-.3.9-1,1.6-1.6,2.3-.3,1.9-.3,3.8-.7,5.7-.2,1-1,1.9-1.6,2.8-.2.7-.2,1.2,0,1.7,0,.9.3,1.6.5,2.3.2,1-.3,2.1,0,3.1.2,1.4.3,2.8.2,4.2-.7,2.1-2.6,1.9-2.8-.3,0-1.4.7-2.8,1-4.4.3-1.7-1.2-3.3-1.4-5-.2-.2-.3-.2-.3-.2-.9.3-1.4,1.2-1.9,1.9-.3.7-.9,1.2-1,1.9,0,.9.5,1.7.5,2.6l-.5,1.6c0,1.2.2,2.6-.3,3.7,0,.5,0,.9.2,1.2.2.9.5,1.9.5,2.8-.2.7-.2,2.6-1.2,2.1-1-.9-.7-2.4-1-3.7,0-.5-.3-1-.3-1.6-.2-1.6.3-3,0-4.4,0-.3-.2-1.2-.7-1-1,0-1.9.3-2.6,1l-1,1.6c-.5.5-1.2,1-1.7,1.4-.2.5-.5.9-.7,1.4,1,1.6,2.1,3.5,2.4,5.4-.2.9-.3,1.6-.2,2.4.2.9.7,1.9,1.7,1.6,1.2-.2,1.6,1.2,1.7,2.1.2.9.9,1.6.9,2.6s-.2,1-.2,1.6c.2.5.5.9.9,1.4.7,1,1.6,2.1,2.4,3,.5.3.9.9,1.2,1.4.9,1,1.2,2.4,1.6,3.8.5.7,1,1.6,1,2.4.2.9.2,1.9-.9,1.7-.2.2-.3.2-.5.2l-.7.7c-.5.5-1.4.7-1.9.9-.3.2-.5.5-.7.7-.3.5-.9,1-1.6,1.2.9,0,1.7.2,2.6-.2.9-.3,1.7-1,2.8-1,1.6-.2,3.1.3,4.2,1.4.3.3.3,1,.5,1.4.3.9.9,1.6,1.4,2.3.5.5.7,1,.9,1.7.7.9,1,1.9,1.2,3.1.3,1,1,2.3.5,3.3-.7,1.4-.7,2.3.5,3.1.5.5.9,1,1.6,1.4s1.6.3,2.1.9c.3.5,2.1,4.4,1.4,4.9v.2c.3.2.7.3,1,.7.2.3,0,.7,0,1,.3.2.9.3,1,.7.7.5.3,2.1-.5,1.9-.9,0-1.4-.9-1.7-1.6-.2-.2-.2-.3-.3-.3s-.3,0-.5-.2c-.7,0-.7.5-.5.9.2.9,1,1.4,1.2,2.3.2,1.2-1,1.9-1.6,2.6.2.5.5.9.7,1.4.3.5.2,1.7-.7,1.4-.3,0-.5-.3-.7-.5l-.5-.7c-.9-.5-1.2-1.7-.9-2.6.2-.7.3-1.2.3-1.7.2-.9-.3-1.6-.2-2.4,0-.3.3-.9.3-1.2s-.2-.2-.2-.3c-1.2-.3-1.2-1.2-1-2.3,0-.3.2-.9-.3-.9s-.9.2-1,.3c0,.2-.2.3-.2.5.9,2.1-1.4,1.4-1.9,2.8.2,1.2.2,2.4.5,3.7.2.3.5.5.5,1,.2.5-.2,1-.2,1.6.3.9.7,1.6.3,2.4-.2.3-.5.7-.5,1.2.2.5.5,1,.5,1.6,0,1-.9,1.9-1.4,2.8-.3.5.3,1,.3,1.6.2.7,0,1.9-1,1.9-1-.2-1.6-1.6-1.4-2.6.2-1,.9-2.1,1-3.1.2-.5-.2-.9-.3-1.4-.2-.5.3-1,.3-1.6.5-1.6,0-3-.7-4.4-.3-.9,0-1.7-.2-2.4-.3-.7-.2-1.2-.2-1.7-.2-.3-.3-.5-.5-.7-.2-.3-.2-.7-.3-.9-.2-.5-.5-.5-1-.3-1,0-2.1.9-2.8,1.7,0,.3-.2.7,0,.9,0,.3.2.7.2,1-.2.9-.3,1.7-1,2.4,0,.2-.2.3-.3.5l-.5,1.4c.2.7.5,1.2.5,1.9s0,.2.2.3c.9.7,1,1,.5,2.3.3.3.9.7,1,1.4.2.7-.5,1.4-1.2,1.2-.7-.2-1.2-.7-1.2-1.4s.2-1.2-.2-1.9c-.2,0-.3,0-.5-.2-.3,0-.5-.2-.5-.3-.3-.7-.2-1.6-.5-2.1-.5-1-1-1.9-2.1-2.4,0-.2-.2-.2-.2-.2-.9.5-1.4,1.4-2.1,1.9-.9,1-1.7.7-1.9-.5-.3-1.9,1.7-2.6,2.6-3.7.9-.9,1.6-1.9,2.1-2.8,0-.2,0-.3-.2-.5-.2-.3-.2-.7-.3-1-.7-.2-1.4-.7-1.6-1.6-.2-.7-.9-.3-1.4-.3s-.3.2-.5.3l.2.7c.5,1-.3,1.2-1,1.7-.7.3-.5.9-.5,1.4.2.9.2,1.6-.3,2.1-.3.9-1.6.9-1.9-.2-.3-.5,0-1.2-.2-1.9,0-.7,0-1.4-.2-2.1-.7,0-1.2-.5-1.4-1-.2-.5-.3-1.4-.9-1.7-1.4-.5-.7,1.9-.5,2.6.2.7.5,1.4.2,2.1-.3,1-1.6,1.7-1.7,3,.2.7.3,1.4.3,2.1s-.5,1.4-.7,2.1c-.2,1.4-.7,2.8-1.2,4-.3,1.4.7,2.4.7,3.8s-.2.9,0,1.4c.2.7.7,1.2.5,1.9,0,1-1,1.9-.9,3,0,1,1,2.1.7,3.1-.3.7-1.2,1-1.9,1-1.7-.3-2.3-2.6-1.9-4.2.2-1.2,1.4-1.9,1.7-3,.3-1,.5-2.3.2-3.3-.5-.7-.7-1.6-.7-2.4s-.3-1.2-.3-1.7c-.2-1.2,1.2-2.3.9-3.5-.2-.3-.7-.7-.9-1.2-.3-.5-.2-1-.2-1.6l-.3-3c0-.3,0-.9-.5-1.2,0,0-.2-.2-.3-.2,0,.3-.2.5-.3.9s-.2.9-.3,1.2c-.2.5-.3,1-.9,1.4-.2.2-.3.3-.3.5-.2.9-.5,1.4-1.2,1.9-.2.2-.2.5-.3.9-.2.7-.5,1.4-.9,2.1.7,2.4.3,2.3-1.4,3.7-.3.3-1.7,1.7-2.1,1s.3-1.2.7-1.7c.3-.3.2-.9.3-1.2,0-.9.7-1.4,1-2.1.3-1.6,1-3.1,1.7-4.5,0-.3.2-.5.2-.9-.9-1-.5-1.7-.2-2.8-.3.2-.5.2-.7.3-1,.7-1.2,3.5-3,2.8-.7-.3-.7-1.2-.2-1.7.3-.2.7,0,1,0,.3-.2.3-.5.3-.9,0,0-.2.2-.3.2-.3-.3-.3-.9-.2-1.2.2-.5.7-.9,1.4-1,.9-.5,1.9-.9,2.6-1.6v-.2c0-.5.3-1.2.7-1.9,0-.7-.7-1.4-.9-2.1-.5-.9-.2-1.9-.5-2.8-.2-.7-.9-.9-1.2-1.4-.7-.7-.9-1.6-.7-2.6,0-.7-.2-1.4-.2-2.1-.2-.2-.2-.5-.2-.9.2-.2.3-.5.3-.9-.7-.5-1.6-.5-2.3-1-.9-.5-.2-1.7-.2-2.6l-.7-.7c-.5-.5-.2-.9-.2-1.4.2-.9-.2-1.7-.2-2.8-.3-.9-.5-1.9-1-2.4-1.2-.7-1.2,2.1-1.4,2.6-.2.9-.9,1.4-.9,2.3s.5,1.7.7,2.8c1,4.5-4.9,4.5-3,0,.3-.9,1.4-1.7,1.2-2.8-.2-.3-.5-.5-.5-.9-.2-.7-.2-1.2.2-1.7.3-.2.5-.3.7-.7.5-1,.3-2.6.7-3.7,0-.5.2-.9,0-1.4-.5-.7-.9-1.6-.9-2.6s.7-2.8-.7-3.8c-.7-.9-.3-2.1-.5-3.1-.2-.3-1-.2-1,.3s-.7,1.2-.7,1.7v.2c0,.7,0,1.4.2,2.1.2.3.3.5.3.7.2.7,0,1,0,1.6-.3,1.2,0,3.8-1.2,4.4-1.2-.2-.5-2.3-.9-3.1-.2-.3-.5-.7-.9-1.2-.5-.9-.3-1.9-.2-3,0-1.6.9-3,.9-4.4-.3-2.3-1.6-3.5-.3-5.9v-.2c-.5-1.6-1.7-2.8-1.9-4.4-.2-.5,0-1.2,0-1.7s-.2-.7-.3-1c-.2-.9.2-2.1-.7-2.8-.3-.2-.9-.2-1.2.2-.2.7-.2,1.6-.5,2.3-.2.3-.3.7-.3,1,0,1,.2,2.1,0,3.1l-.5,2.1c.3,1.4.5,2.8,1,4.2.3.7.7,1.4.5,2.1,0,.7-.2,1.4-.3,1.9,0,.5.2,1,.2,1.6-.2,1.4-.5,2.6-.5,3.8s-.2,1.2,0,1.9c.2.7.7,1.4.7,2.3s-.5,1.9-1,2.8c-.3.5-.9.7-1.4,1,1.9,1.6,2.8,2.8,2.3,5.2-.2.9.3,1.7,0,2.6-.2.5-.7.9-1,1.4-.3.5-.3,1.2-.3,1.7h.2c.2.2.3.5.2.7,0,.5-.2.9,0,1.4,0,.9.5,1.4.5,2.3.2.7-.3,1.4-.3,2.1s.3.9.5,1.4c.5,1-.2,2.1-.9,3-.2,1,.7,1.7,1.4,2.4.7.3,1.4.5,1.7,1.2.5.5.9,2.4-.2,2.6-.5,0-.9-.5-1.2-.7.2.7.5,2.1-.5,2.6-.5,0-1.4.5-1.2,1.2,2.1,1.6,2.8-.2,3.8,3.1.7,1,1.9,1.6,3,2.6.2,0,.5-.3.7-.2.3,0,.7,0,1,.2.2.2.5.5.9.7.2.3.2.7.3,1,2.1,1.4.5,4.4-1.7,2.1-.3-.2-.5-.7-.9-1-.5-.3-1,0-1,.5l.7,1c.3.3.3.9.3,1.2,0,.9.2,1.7-.3,2.4.3.7,1,1.6.5,2.3-1.2.9-1.9-.2-2.3-1.2-.2-.3-.3-.3-.7-.5-1-.7-.7-2.1-.5-3,.2-.5,0-.9-.2-1.2l-1-1c-.2-.2-.3-.2-.5-.5-.3-.9,0-2.1-.7-3-1.7-1.4-4.5.5-5.9-1.4-.5-.7-.9-1.7-.7-2.6,1-2.4,1.4-5.6-.9-7.1-.7-.2-1.2-.7-1.6-1.2-.5-.9-1.7-2.1-2.4-.9-.2.2-.3.5-.3.9.2.5.7.9.9,1.4,0,.9-.2,1.6.2,2.3.3,1.4,1,3,.3,4.2-.2.5-.5.9-.9,1.4-.3.9-.2,1.7.2,2.4.9.7,1.7,1.6,1.6,2.8,0,.5-.5,1-1.2,1.4-.3.2-.9.2-1.2.7l-1.6,3.5c-.7.9-.9,2.3,0,3.1l1.7,1.6c.7.3.7,1.2,1.2,1.7.2.3.7.3.9.7.5,1,1.9,2.3,1.4,3.5-.2.2-.3.3-.7.3-1.2-.3-1.4-1.7-2.6-2.1-.2-.2-.5,0-.9,0-.9-.2-1.2-1.4-2.1-1.9-.2.3-.3.7-.7,1l.7,1c.3.7.3,1.6.5,2.3.2,1-.5,2.4-1.7,2.1-.9-.5-1.7-1.6-1.6-2.8ZM1038.2,240.9v-.5c0-.5-.3-1-.3-1.6-.2-.7,0-1.2-.2-1.7-.5,0-.5.7-1,.7-.2.7.3,1.4.3,2.3s-.2.9-.3,1.4c-.2.7.2,1.2.7,1.7.3-.7.5-1.6.9-2.3ZM1041,260.4c-.5.2-.9.3-1.4,0-.3-.3-.9-1.6-.3-1.9.3-2.1,3-.9,4,0,.5.5,1,1,1.2,1.7.3,1-.3,2.1-1.6,1.7-.9-.2-1.2-1.2-1.9-1.6ZM1048.5,245.5c.3-.7.7-1.9,1.7-2.1,1.9.7,1,3.5-.3,4.4-.2.3-.5.9-1,.5-.9-.7-.7-1.9-.3-2.8ZM1061,241.8c.2-.3.2-.9.2-1.2h.2c-.3-.9.5-1.9,1.2-1,.5.7-.2,3.8-1.2,3.3-.3-.2-.3-.7-.3-1ZM1069,258.5c-.2-.2-.5-.2-.9-.3-.5-.2-.7-.9-.9-1.4-.2-.7-.2-1.4,0-2.1,0-.9.2-1.7.7-2.4.3-.3.9-.3,1.4,0,1.4.5,1.2,2.3.7,3.5-.2.7.7,1.4.9,2.1.5.7.5,3.1-.7,2.8-.7-.3-.7-1.4-1.2-2.1ZM1078.1,163.1c0,.2.2.2.2,0,1.2-1.2,3-1.9,4.2-3.1.5-.3,1-.5,1.7-.3.3,0,.7.3,1,.2.9-1.4.7-3.1.7-4.9s.7-3.3,1.4-4.7c.3-.9,0-1.6,0-2.4.2-1,.9-2.1,1.7-2.8-.9-2.4-3.1-4.4-3.3-7-.2-1.2,0-2.6-1.2-3.3h-.7c-.5,0-1,0-1.4.5.3,1,.2,2.3-.3,3.3-.5.7-1.4-.2-1.6-.7-.3-.9.3-1.7.2-2.6-.3-.9-.5-1.7-.2-2.8,0-.2,0-.5-.2-.7-.3-.3-.7-.7-1.2-.9l-.9,1-1,.5c-.2.9.2,1.7.2,2.6-.5,1.2-1,2.6-1,4s.3,1.9.2,3c0,.7.3,1.6.2,2.3,0,.7-.5,1-.7,1.7-.2.3-.2.9-.3,1.4-.5.9-1,.2-1.4-.5-.7-1.7.2-3.8-.7-5.7-.2-1.2.5-2.3.5-3.5-.2-.5-.5-1-.7-1.7-.2-.5,0-1,0-1.6.2-.9-.7-1.6-.7-2.4-.9,0-1.7,0-2.4.2.2.5-.2,1-.2,1.6,0,1.4-.3,2.8-.2,4.2,0,.9.5,1.4.7,2.1.2.9,0,1.7-.2,2.8-.2.5,0,1,0,1.7.2.5,0,1.2-.2,1.9,0,.9.5,1.7.3,2.8-.3,1-.9,2.1-1.4,3-.5.7-.9,1.2-1,1.7,1.6,1.2.9,3.3,1.6,5,.3.3.9.9,1,1.6.2.9-.2,1.9.3,3,.7.7,2.1.5,3.1.5s2.4-1.4,3.8-.9ZM1078.6,143.8c0-.7-.2-1.2.2-1.7,0-.9,1.2-1.4,1.9-1.4.5.3,1.2.9,1.4,1.7,0,1-.9,2.1-1.6,2.8-.5.3-.9,1.6-1.7,1-.7-.7-.3-1.7-.2-2.4ZM1096,236.6l-1.2-1.2c-.2-.2-.5-.2-.9-.2-.2.2-.3.3-.5.2,0,.3.3.5.5.7.3.5.7,1.2.9,1.9,0,.3.3.7.5.7,1-.2,1-1.4.7-2.1ZM1109,215c-.3,0-.9-.2-1,0-.2.2-.3.2-.3.3.5-.2.9-.3,1.4-.3ZM1113.1,238c.2-.5,1.2-.9,1-1.6-.2-.2-.3-.3-.5-.3s-.3,0-.5-.2c0,.2-.2.2-.3.2l-.5,1.2c-.2,1.2-1,2.3-.5,3.5.7-.9.7-1.9,1.4-2.8Z"/>
</svg>