<?xml version="1.0" encoding="UTF-8"?>
<svg id="Layer_1" data-name="Layer 1" xmlns="http://www.w3.org/2000/svg" viewBox="0 0 864.09 228">
  <defs>
    <style>
      .cls-1 {
        fill: #000;
      }

      .cls-1, .cls-2 {
        stroke-width: 0px;
      }

      .cls-2 {
        fill: #f59e0b;
      }
    </style>
  </defs>
  <rect class="cls-2" width="864.09" height="228" rx="43.85" ry="43.85"/>
  <g>
    <path class="cls-1" d="M121.35,109.8c-6.13-3.89-9.28-5.09-13.92-5.09-7.63,0-9.73,4.49-9.73,16.46,0,10.03,2.39,17.21,11.82,17.21,4.34,0,6.73-.6,10.77-2.1l3.44,33.37c-9.13,3.14-15.86,5.09-30.52,5.09-32.02,0-36.81-16.76-36.81-57.16s5.84-53.27,36.21-53.27c13.02,0,22.89,1.95,32.02,6.13l-3.29,39.35Z"/>
    <path class="cls-1" d="M127.04,173.7l-.9-107.73,33.82-1.95,1.05,108.18-33.97,1.5Z"/>
    <path class="cls-1" d="M164.29,92.9l-1.05-25.74,35.46-2.99.6,30.22-35.01-1.5ZM197.06,173.99l-32.17-1.95-1.05-76.46,35.46,3.74-2.24,74.66Z"/>
    <path class="cls-1" d="M270.08,175.04l.75-50.27c.15-4.79-1.05-5.99-3.59-4.94l-1.35,53.57-29.63-3.29.15-37.56c.15-9.58-.9-11.82-3.89-11.82l.75,51.77-31.57,1.95.9-81.55,29.18-2.99.9,5.69c5.39-2.54,10.47-5.24,18.25-5.24,6.13,0,10.02,2.09,12.27,7.18,5.09-4.64,10.62-7.33,20.65-7.33,10.92,0,16.31,6.73,16.31,27.98v54.32l-30.08,2.54Z"/>
    <path class="cls-1" d="M352.07,171.45c-6.43,0-11.67-2.84-15.26-5.84l-.3,9.43-32.32-.9-1.65-110.73,33.97,2.69-1.5,31.27c6.58-4.64,12.12-6.73,20.2-6.73,11.67,0,18.25,7.18,18.25,40.7s-5.99,40.1-21.4,40.1ZM338.61,119.53c-1.65,0-2.39,2.1-2.39,14.96,0,9.88.6,11.97,2.39,11.97,1.65,0,2.24-2.39,2.24-15.86,0-9.58-.45-11.07-2.24-11.07Z"/>
    <path class="cls-1" d="M481.8,173.39l-35.76-3.59,1.2-30.67-4.79.9-.45,32.62-34.27,1.2-1.8-108.63,38.3-.9-.75,47.73,3.89.6,1.5-47.13,34.86,1.35-1.95,106.53Z"/>
    <path class="cls-1" d="M547.93,171.15l-26.48,5.24-.3-8.23c-6.43,4.19-13.17,6.88-20.8,6.88-10.77,0-15.11-5.39-15.11-21.1,0-20.65,8.38-30.52,35.46-30.52.3-3.44-1.05-4.94-4.94-4.94-9.13,0-14.66,1.65-22.44,4.64l-3.59-26.04c7.48-3.44,17.66-6.43,29.48-6.43,21.55,0,30.23,2.99,29.78,24.24l-1.05,56.26ZM520.85,143.02c-8.38,0-10.02,1.95-10.02,5.09,0,1.5.75,2.39,2.99,2.39,1.95,0,4.94-.9,7.18-2.99l-.15-4.49Z"/>
    <path class="cls-1" d="M596.26,124.77c-6.13,0-8.53,2.69-7.78,14.81l2.1,32.92-37.56,2.84-2.09-83.34,30.97-1.65,1.35,6.58c4.49-4.64,12.42-9.43,22.74-9.73l.6,40.4c-3.74-2.09-6.13-2.84-10.32-2.84Z"/>
    <path class="cls-1" d="M677.51,170.4l-31.42,4.79.15-9.43c-5.39,5.39-11.07,7.63-20.2,7.63-13.62,0-18.25-9.58-18.25-38.75,0-35.16,6.13-44.44,19.9-44.44,10.17,0,14.66,2.09,19.75,5.84l-1.35-27.38,32.47-5.39-1.05,107.13ZM643.69,119.38c-1.5,0-2.09,1.95-2.09,9.88,0,15.86.6,17.96,2.69,17.96,1.35,0,1.95-1.65,1.95-12.27,0-14.21-.15-15.56-2.54-15.56Z"/>
    <path class="cls-1" d="M709.23,173.84c-20.65,0-28.88-6.88-28.88-37.41,0-38.45,7.33-45.79,35.31-45.79,19.6,0,25.89,10.77,26.78,33.52l.45,14.81-32.47,7.63c1.5,2.25,4.04,2.99,8.53,2.99,5.98,0,14.06-1.35,22-4.19l2.09,22.29c-10.47,4.64-20.35,6.13-33.82,6.13ZM711.77,114.29c-2.54,0-2.99,2.09-2.99,12.27l6.13-1.8c-.45-8.38-.75-10.47-3.14-10.47Z"/>
    <path class="cls-1" d="M789.87,124.77c-6.13,0-8.53,2.69-7.78,14.81l2.09,32.92-37.56,2.84-2.09-83.34,30.97-1.65,1.35,6.58c4.49-4.64,12.42-9.43,22.74-9.73l.6,40.4c-3.74-2.09-6.13-2.84-10.32-2.84Z"/>
  </g>
</svg>